<svg xmlns="http://www.w3.org/2000/svg" width="199.047" height="41.717" viewBox="0 0 199.047 41.717"><defs><style>.a{fill:#ff0202;}.b{fill:#3225a7;}.c{fill:#3124a8;}.d{fill:#3405b5;}</style></defs><g transform="translate(-268.586 -82)"><g transform="translate(268.586 82.931)"><path class="a" d="M9.279,19.61V0H2.454L0,3.551H4.849V19.61H0v3.551H13.769V19.61Z"/><path class="b" d="M80.283,7.161v2.9H77.2v3.209h3.083v2.9H83.65v-9ZM77.2,0V3.551h9.743V8.037h3.951V0Zm9.758,15.124V19.61H81.78v3.551h9.114V15.124Z" transform="translate(-65.646)"/><path class="b" d="M210.327,18.912a3.113,3.113,0,0,1-2.3,1.055,2.288,2.288,0,0,1-1.676-.8,4.561,4.561,0,0,1-1.078-2.243,6.967,6.967,0,0,0,3.158-1.857,4.385,4.385,0,0,0,1.227-3.179,4.354,4.354,0,0,0-1.706-3.714,6.809,6.809,0,0,0-4.22-1.278,10,10,0,0,0-6.839,3.135V0H189.3V3.551h3.4V19.61h-3.4v3.551h10.506V19.61h-2.918V16a12.946,12.946,0,0,0,4.759,1.278,8.995,8.995,0,0,0,2.215,4.665,5.348,5.348,0,0,0,3.981,1.694,5.452,5.452,0,0,0,2.649-.594,6.691,6.691,0,0,0,2.005-1.708Zm-6.2-5.17a5.854,5.854,0,0,1-2.709.579,11.816,11.816,0,0,1-4.52-.981v-.475a13.636,13.636,0,0,1,3.038-1.887,6.729,6.729,0,0,1,2.634-.639,3.639,3.639,0,0,1,1.976.431,1.535,1.535,0,0,1,.688,1.352,1.8,1.8,0,0,1-1.108,1.619" transform="translate(-160.97)"/><path class="b" d="M431.813,11.113a6.144,6.144,0,0,0,2.26-2.02,5.258,5.258,0,0,0,.838-2.942,5.482,5.482,0,0,0-2.05-4.457A9.006,9.006,0,0,0,426.994,0H413.6V3.551h4.086V19.61H413.6v3.551h14.008c2.948,0,5.208-.565,6.765-1.694a5.551,5.551,0,0,0,2.35-4.754q0-4.323-4.909-5.6M422.1,3.551h4.624a4.489,4.489,0,0,1,2.634.743,2.726,2.726,0,0,1,1.078,2.392c0,2.184-1.512,3.268-4.52,3.268H422.1Zm5.163,16.06H422.1V13.163h5.328a6.945,6.945,0,0,1,3.547.787,2.648,2.648,0,0,1,1.212,2.407c.015,2.184-1.631,3.254-4.924,3.254" transform="translate(-351.701 0)"/><path class="b" d="M601.171,58.88a2.637,2.637,0,0,1-.958.208c-.659,0-.988-.446-.988-1.322V52.433a6.018,6.018,0,0,0-1.916-4.709,8.057,8.057,0,0,0-5.492-1.708,19.779,19.779,0,0,0-7.617,1.723l.853,3.209a18.061,18.061,0,0,1,6.2-1.382,5.305,5.305,0,0,1,2.844.683,2.214,2.214,0,0,1,1.107,2.02v1.248a16.6,16.6,0,0,0-2.514-.832,12.032,12.032,0,0,0-2.724-.282,8.8,8.8,0,0,0-3.278.624,5.9,5.9,0,0,0-2.5,1.842,5.034,5.034,0,0,0,.643,6.626,6.033,6.033,0,0,0,3.951,1.307q3.3,0,6.66-2.971a3.744,3.744,0,0,0,1.347,2.05,3.666,3.666,0,0,0,2.26.728,6.855,6.855,0,0,0,1.736-.208,4.207,4.207,0,0,0,1.257-.505Zm-5.986-1.753a12.091,12.091,0,0,1-2.888,1.649,6.533,6.533,0,0,1-2.38.535,3.176,3.176,0,0,1-1.766-.461,1.5,1.5,0,0,1-.718-1.337,1.647,1.647,0,0,1,.973-1.53,5.028,5.028,0,0,1,2.365-.55,12.391,12.391,0,0,1,4.415.773Z" transform="translate(-495.946 -39.166)"/><path class="b" d="M730.686,55.473a4.1,4.1,0,0,1-1.272,2.347,3.225,3.225,0,0,1-2.29.921,5.316,5.316,0,0,1-1.976-.386,9.757,9.757,0,0,1-2.14-1.2,19.462,19.462,0,0,1,3.607-2.02,22.061,22.061,0,0,0,3.457-1.976,9.153,9.153,0,0,0,2.365-2.54,12.969,12.969,0,0,0,1.571-3.863L730.432,45.4a8.407,8.407,0,0,1-1.6,3.64,20.394,20.394,0,0,0-2.649-2.02,9.433,9.433,0,0,0-2.844-1.144,16.979,16.979,0,0,0-4.071-.4h-2.619V52.59h3.577V49.055a11.652,11.652,0,0,1,3.652.49,9.731,9.731,0,0,1,2.664,1.337l-2.11,1.218c-1.452.787-2.634,1.486-3.532,2.095a13.342,13.342,0,0,0-5,6.715l3.457,1.367a12,12,0,0,1,1.706-3.239,14.541,14.541,0,0,0,3.247,2.451,7.157,7.157,0,0,0,3.457.787,6.4,6.4,0,0,0,2.918-.7,6.6,6.6,0,0,0,2.424-2.006,6.316,6.316,0,0,0,1.212-3.1Z" transform="translate(-608.76 -38.655)"/><path class="b" d="M869.971,58.88a2.363,2.363,0,0,1-.958.208c-.658,0-.988-.446-.988-1.322V52.433a6.018,6.018,0,0,0-1.916-4.709,8.058,8.058,0,0,0-5.492-1.708A19.78,19.78,0,0,0,853,47.738l.853,3.209a18.06,18.06,0,0,1,6.2-1.382,5.3,5.3,0,0,1,2.843.683A2.214,2.214,0,0,1,864,52.269v1.248a16.6,16.6,0,0,0-2.514-.832,12.033,12.033,0,0,0-2.724-.282,8.8,8.8,0,0,0-3.277.624,5.9,5.9,0,0,0-2.5,1.842,5.034,5.034,0,0,0,.643,6.626,6.033,6.033,0,0,0,3.951,1.307q3.3,0,6.66-2.971a3.744,3.744,0,0,0,1.347,2.05,3.666,3.666,0,0,0,2.26.728,6.856,6.856,0,0,0,1.736-.208,4.208,4.208,0,0,0,1.257-.505Zm-5.986-1.753a12.089,12.089,0,0,1-2.888,1.649,6.53,6.53,0,0,1-2.379.535,3.176,3.176,0,0,1-1.766-.461,1.5,1.5,0,0,1-.718-1.337,1.647,1.647,0,0,1,.973-1.53,5.029,5.029,0,0,1,2.365-.55,12.391,12.391,0,0,1,4.415.773Z" transform="translate(-724.518 -39.166)"/><path class="b" d="M1008.094,58.88a2.364,2.364,0,0,1-.958.208c-.658,0-.988-.446-.988-1.322V52.433a6.018,6.018,0,0,0-1.916-4.709,8.057,8.057,0,0,0-5.492-1.708,19.78,19.78,0,0,0-7.618,1.723l.853,3.209a18.06,18.06,0,0,1,6.2-1.382,5.3,5.3,0,0,1,2.844.683,2.214,2.214,0,0,1,1.107,2.02v1.248a16.6,16.6,0,0,0-2.514-.832,12.032,12.032,0,0,0-2.724-.282,8.8,8.8,0,0,0-3.277.624,5.9,5.9,0,0,0-2.5,1.842,4.626,4.626,0,0,0-.958,2.9,4.512,4.512,0,0,0,1.6,3.729A6.033,6.033,0,0,0,995.7,62.8q3.3,0,6.66-2.971a3.745,3.745,0,0,0,1.347,2.05,3.666,3.666,0,0,0,2.26.728,6.855,6.855,0,0,0,1.736-.208,4.208,4.208,0,0,0,1.257-.505Zm-5.986-1.753a12.092,12.092,0,0,1-2.888,1.649,6.531,6.531,0,0,1-2.38.535,3.177,3.177,0,0,1-1.766-.461,1.5,1.5,0,0,1-.718-1.337,1.647,1.647,0,0,1,.973-1.53,5.029,5.029,0,0,1,2.365-.55,12.392,12.392,0,0,1,4.415.773Z" transform="translate(-841.958 -39.166)"/><path class="b" d="M1139.131,46.1a7.185,7.185,0,0,0-3.592,1.114,15.457,15.457,0,0,0-3.592,3V46.5H1124.3v3.343h3.4v9.211h-3.4V62.4h11.09V59.055h-3.442v-5.5a13.91,13.91,0,0,1,2.8-2.407,4.806,4.806,0,0,1,2.365-.862v2.9h3.711V46.1Z" transform="translate(-956.039 -39.251)"/><g transform="translate(0.417 31.16)"><path class="c" d="M262.108,571.556a5.794,5.794,0,0,1-.447,2.336,3.532,3.532,0,0,1-1.229,1.558,3.147,3.147,0,0,1-1.817.534,2.475,2.475,0,0,1-1.885-.7,2.708,2.708,0,0,1-.668-1.944,5.556,5.556,0,0,1,.463-2.292,3.683,3.683,0,0,1,1.267-1.586,3.154,3.154,0,0,1,1.824-.55,2.391,2.391,0,0,1,1.836.7,2.736,2.736,0,0,1,.656,1.946m-2.581-1.683a1.761,1.761,0,0,0-1.175.451,2.977,2.977,0,0,0-.825,1.253,4.978,4.978,0,0,0-.3,1.751,1.858,1.858,0,0,0,.383,1.255,1.34,1.34,0,0,0,1.069.442,1.741,1.741,0,0,0,1.168-.449,2.923,2.923,0,0,0,.809-1.246,5.143,5.143,0,0,0,.289-1.765,1.9,1.9,0,0,0-.371-1.246,1.288,1.288,0,0,0-1.048-.446" transform="translate(-256.063 -568.576)"/><path class="c" d="M283.415,580.441l.667-3.159a3.54,3.54,0,0,0,.085-.616.54.54,0,0,0-.606-.616,1.055,1.055,0,0,0-.668.268,2.423,2.423,0,0,0-.592.773,4.383,4.383,0,0,0-.395,1.145l-.46,2.2h-1.109l1.109-5.2h.865l-.1.964h.042a2.82,2.82,0,0,1,.8-.806,1.7,1.7,0,0,1,.9-.251,1.3,1.3,0,0,1,.975.357,1.4,1.4,0,0,1,.345,1.015,4.45,4.45,0,0,1-.108.851l-.644,3.069Z" transform="translate(-273.769 -573.127)"/><path class="c" d="M304.107,580.535a1.949,1.949,0,0,1-1.445-.522,1.975,1.975,0,0,1-.519-1.457,4.135,4.135,0,0,1,.364-1.732,2.97,2.97,0,0,1,.987-1.239,2.369,2.369,0,0,1,1.393-.437,1.824,1.824,0,0,1,1.178.341,1.173,1.173,0,0,1,.421.966,1.5,1.5,0,0,1-.783,1.337,4.277,4.277,0,0,1-2.23.482h-.2l-.009.146v.136a1.182,1.182,0,0,0,.266.818,1.009,1.009,0,0,0,.792.3,2.58,2.58,0,0,0,.672-.089,4.772,4.772,0,0,0,.79-.305v.879a4.361,4.361,0,0,1-.83.294,3.781,3.781,0,0,1-.844.087m.714-4.541a1.181,1.181,0,0,0-.848.4,2.33,2.33,0,0,0-.571,1.067h.136a3.113,3.113,0,0,0,1.382-.251.778.778,0,0,0,.5-.712.475.475,0,0,0-.15-.374.654.654,0,0,0-.447-.134" transform="translate(-289.676 -573.127)"/><path class="c" d="M334.9,576.181h-1.222l-1.927-5.467h-.028l-.047.324q-.113.7-.167,1t-.863,4.143h-1.029l1.452-6.872h1.26l1.875,5.4h.033q.028-.254.146-.9t.188-.957l.752-3.54h1.029Z" transform="translate(-309.716 -568.867)"/><path class="c" d="M357.4,580.534a1.277,1.277,0,0,1-1.048-.477,2.084,2.084,0,0,1-.385-1.342,4.794,4.794,0,0,1,.327-1.777,3.2,3.2,0,0,1,.9-1.309,1.916,1.916,0,0,1,1.26-.482,1.335,1.335,0,0,1,1.3.837h.047l.291-.743h.846l-1.109,5.2h-.855l.1-.827h-.028a2.111,2.111,0,0,1-1.64.921m.4-.893a1.089,1.089,0,0,0,.757-.364,2.748,2.748,0,0,0,.611-.975,3.623,3.623,0,0,0,.24-1.335.971.971,0,0,0-.221-.665.733.733,0,0,0-.578-.252,1.044,1.044,0,0,0-.752.362,2.576,2.576,0,0,0-.564.985,3.982,3.982,0,0,0-.212,1.29,1.133,1.133,0,0,0,.19.717.64.64,0,0,0,.529.237" transform="translate(-328.943 -573.126)"/><path class="c" d="M378.25,576.776a2.049,2.049,0,0,0,.71-.146v.837a2.03,2.03,0,0,1-.447.141,2.655,2.655,0,0,1-.564.061q-1.288,0-1.288-1.161a2.962,2.962,0,0,1,.075-.616l.569-2.679h-.762l.1-.517.893-.385.606-1.091h.686l-.244,1.156H379.9l-.183.837h-1.3l-.574,2.689a1.937,1.937,0,0,0-.061.432.441.441,0,0,0,.117.322.481.481,0,0,0,.357.12" transform="translate(-343.95 -570.261)"/><path class="c" d="M389.937,575.319h-1.109l1.109-5.2h1.1Zm.221-6.477a.73.73,0,0,1,.183-.517.671.671,0,0,1,.517-.2.628.628,0,0,1,.4.124.457.457,0,0,1,.155.379.722.722,0,0,1-.188.527.658.658,0,0,1-.493.193.675.675,0,0,1-.414-.122.448.448,0,0,1-.164-.385" transform="translate(-352.911 -568.005)"/><path class="c" d="M404.056,577.213a4.233,4.233,0,0,1-.343,1.728,2.766,2.766,0,0,1-.942,1.194,2.358,2.358,0,0,1-1.38.416,1.922,1.922,0,0,1-1.434-.538,1.992,1.992,0,0,1-.531-1.464,4.288,4.288,0,0,1,.336-1.716,2.828,2.828,0,0,1,.942-1.215,2.343,2.343,0,0,1,1.4-.435,1.881,1.881,0,0,1,1.434.545,2.071,2.071,0,0,1,.517,1.485m-1.114-.047a1.219,1.219,0,0,0-.23-.788.8.8,0,0,0-.658-.284,1.094,1.094,0,0,0-.783.336,2.216,2.216,0,0,0-.536.912,3.892,3.892,0,0,0-.19,1.229,1.212,1.212,0,0,0,.233.8.847.847,0,0,0,.689.277,1.082,1.082,0,0,0,.762-.32,2.1,2.1,0,0,0,.526-.9,4.065,4.065,0,0,0,.188-1.267" transform="translate(-360.642 -573.151)"/><path class="c" d="M422.087,580.441l.667-3.159a3.54,3.54,0,0,0,.085-.616.54.54,0,0,0-.606-.616,1.055,1.055,0,0,0-.668.268,2.423,2.423,0,0,0-.592.773,4.383,4.383,0,0,0-.395,1.145l-.46,2.2h-1.109l1.109-5.2h.865l-.1.964h.042a2.82,2.82,0,0,1,.8-.806,1.7,1.7,0,0,1,.9-.251,1.3,1.3,0,0,1,.975.357,1.4,1.4,0,0,1,.345,1.015,4.448,4.448,0,0,1-.108.851l-.644,3.069Z" transform="translate(-374.927 -573.127)"/><path class="c" d="M439.755,590.771a.866.866,0,0,1,.221-.623.808.808,0,0,1,.616-.233.589.589,0,0,1,.421.148.569.569,0,0,1,.157.435.863.863,0,0,1-.223.609.759.759,0,0,1-.585.242.583.583,0,0,1-.458-.167.6.6,0,0,1-.148-.411" transform="translate(-390.061 -583.899)"/><path class="c" d="M466.389,571.556a5.794,5.794,0,0,1-.447,2.336,3.531,3.531,0,0,1-1.229,1.558,3.147,3.147,0,0,1-1.817.534,2.475,2.475,0,0,1-1.885-.7,2.708,2.708,0,0,1-.668-1.944,5.555,5.555,0,0,1,.463-2.292,3.683,3.683,0,0,1,1.267-1.586,3.154,3.154,0,0,1,1.824-.55,2.391,2.391,0,0,1,1.836.7,2.736,2.736,0,0,1,.656,1.946m-2.581-1.683a1.761,1.761,0,0,0-1.175.451,2.977,2.977,0,0,0-.825,1.253,4.979,4.979,0,0,0-.3,1.751,1.858,1.858,0,0,0,.383,1.255,1.34,1.34,0,0,0,1.069.442,1.741,1.741,0,0,0,1.168-.449,2.923,2.923,0,0,0,.809-1.246,5.146,5.146,0,0,0,.289-1.765,1.894,1.894,0,0,0-.371-1.246,1.288,1.288,0,0,0-1.048-.446" transform="translate(-405.08 -568.576)"/><path class="c" d="M487.7,580.441l.667-3.159a3.543,3.543,0,0,0,.085-.616.54.54,0,0,0-.606-.616,1.055,1.055,0,0,0-.668.268,2.422,2.422,0,0,0-.592.773,4.381,4.381,0,0,0-.395,1.145l-.46,2.2h-1.109l1.109-5.2h.865l-.1.964h.042a2.82,2.82,0,0,1,.8-.806,1.7,1.7,0,0,1,.9-.251,1.294,1.294,0,0,1,.975.357,1.4,1.4,0,0,1,.345,1.015,4.446,4.446,0,0,1-.108.851l-.644,3.069Z" transform="translate(-422.787 -573.127)"/><path class="c" d="M508.389,580.535a1.949,1.949,0,0,1-1.446-.522,1.975,1.975,0,0,1-.519-1.457,4.135,4.135,0,0,1,.364-1.732,2.97,2.97,0,0,1,.987-1.239,2.369,2.369,0,0,1,1.393-.437,1.824,1.824,0,0,1,1.178.341,1.173,1.173,0,0,1,.421.966,1.5,1.5,0,0,1-.783,1.337,4.277,4.277,0,0,1-2.231.482h-.2l-.009.146v.136a1.182,1.182,0,0,0,.266.818,1.009,1.009,0,0,0,.792.3,2.58,2.58,0,0,0,.672-.089,4.774,4.774,0,0,0,.79-.305v.879a4.358,4.358,0,0,1-.83.294,3.781,3.781,0,0,1-.844.087m.714-4.541a1.181,1.181,0,0,0-.848.4,2.329,2.329,0,0,0-.571,1.067h.136a3.113,3.113,0,0,0,1.382-.251.778.778,0,0,0,.5-.712.475.475,0,0,0-.15-.374.654.654,0,0,0-.447-.134" transform="translate(-438.694 -573.127)"/><path class="c" d="M536.617,576.181l-.541-5.707h-.028a13.625,13.625,0,0,1-.258,1.6l-.865,4.108H533.9l1.452-6.872h1.518l.512,5.4h.028l2.848-5.4h1.617l-1.434,6.872h-1.067l.855-4.1q.183-.874.4-1.608H540.6l-3.022,5.707Z" transform="translate(-458.733 -568.867)"/><path class="c" d="M566.308,580.534a1.277,1.277,0,0,1-1.048-.477,2.084,2.084,0,0,1-.386-1.342,4.794,4.794,0,0,1,.327-1.777,3.2,3.2,0,0,1,.9-1.309,1.916,1.916,0,0,1,1.26-.482,1.335,1.335,0,0,1,1.3.837h.047l.291-.743h.846l-1.109,5.2h-.855l.1-.827h-.028a2.111,2.111,0,0,1-1.641.921m.4-.893a1.089,1.089,0,0,0,.757-.364,2.746,2.746,0,0,0,.611-.975,3.623,3.623,0,0,0,.24-1.335.971.971,0,0,0-.221-.665.733.733,0,0,0-.578-.252,1.044,1.044,0,0,0-.752.362,2.576,2.576,0,0,0-.564.985,3.981,3.981,0,0,0-.212,1.29,1.133,1.133,0,0,0,.19.717.64.64,0,0,0,.529.237" transform="translate(-481.332 -573.126)"/><path class="c" d="M588.19,575.147a2.022,2.022,0,0,1,.508.056l-.24,1.03a1.912,1.912,0,0,0-.479-.066,1.38,1.38,0,0,0-1.057.531,3.023,3.023,0,0,0-.649,1.391l-.5,2.35h-1.109l1.109-5.2h.865l-.1.964h.042a2.872,2.872,0,0,1,.78-.811,1.522,1.522,0,0,1,.827-.247" transform="translate(-495.769 -573.126)"/><path class="c" d="M603.139,569.791h1.279l-2.27,2.28,1.368,2.919h-1.232l-.983-2.214-.639.451-.362,1.763h-1.109l1.551-7.314h1.1q-.635,2.947-.75,3.429t-.279,1.065h.019Z" transform="translate(-506.365 -567.676)"/><path class="c" d="M620.755,580.535a1.949,1.949,0,0,1-1.445-.522,1.975,1.975,0,0,1-.519-1.457,4.134,4.134,0,0,1,.364-1.732,2.97,2.97,0,0,1,.987-1.239,2.369,2.369,0,0,1,1.393-.437,1.824,1.824,0,0,1,1.178.341,1.173,1.173,0,0,1,.421.966,1.5,1.5,0,0,1-.783,1.337,4.277,4.277,0,0,1-2.231.482h-.2l-.009.146v.136a1.182,1.182,0,0,0,.266.818,1.01,1.01,0,0,0,.792.3,2.579,2.579,0,0,0,.672-.089,4.768,4.768,0,0,0,.79-.305v.879a4.356,4.356,0,0,1-.83.294,3.781,3.781,0,0,1-.844.087m.714-4.541a1.181,1.181,0,0,0-.848.4,2.33,2.33,0,0,0-.571,1.067h.136a3.113,3.113,0,0,0,1.382-.251.778.778,0,0,0,.5-.712.475.475,0,0,0-.15-.374.653.653,0,0,0-.447-.134" transform="translate(-520.662 -573.127)"/><path class="c" d="M639.14,576.776a2.048,2.048,0,0,0,.71-.146v.837a2.029,2.029,0,0,1-.447.141,2.654,2.654,0,0,1-.564.061q-1.288,0-1.288-1.161a2.958,2.958,0,0,1,.075-.616l.569-2.679h-.762l.1-.517.893-.385.606-1.091h.686l-.244,1.156h1.311l-.183.837h-1.3l-.573,2.689a1.933,1.933,0,0,0-.061.432.441.441,0,0,0,.117.322.481.481,0,0,0,.357.12" transform="translate(-534.262 -570.261)"/><path class="c" d="M649.475,590.771a.866.866,0,0,1,.221-.623.808.808,0,0,1,.616-.233.589.589,0,0,1,.421.148.569.569,0,0,1,.157.435.863.863,0,0,1-.223.609.759.759,0,0,1-.585.242.583.583,0,0,1-.458-.167.6.6,0,0,1-.148-.411" transform="translate(-543.045 -583.899)"/><path class="c" d="M671.623,576.181l-.541-5.707h-.028a13.6,13.6,0,0,1-.258,1.6l-.865,4.108H668.9l1.452-6.872h1.518l.512,5.4h.028l2.848-5.4h1.617l-1.434,6.872h-1.067l.855-4.1q.184-.874.4-1.608h-.028l-3.022,5.707Z" transform="translate(-557.216 -568.867)"/><path class="c" d="M701.314,580.534a1.276,1.276,0,0,1-1.048-.477,2.084,2.084,0,0,1-.386-1.342,4.794,4.794,0,0,1,.327-1.777,3.2,3.2,0,0,1,.9-1.309,1.916,1.916,0,0,1,1.26-.482,1.335,1.335,0,0,1,1.3.837h.047l.291-.743h.846l-1.11,5.2h-.855l.1-.827h-.028a2.111,2.111,0,0,1-1.64.921m.4-.893a1.089,1.089,0,0,0,.757-.364,2.747,2.747,0,0,0,.611-.975,3.623,3.623,0,0,0,.24-1.335.971.971,0,0,0-.221-.665.733.733,0,0,0-.578-.252,1.044,1.044,0,0,0-.752.362,2.575,2.575,0,0,0-.564.985,3.981,3.981,0,0,0-.211,1.29,1.133,1.133,0,0,0,.19.717.64.64,0,0,0,.529.237" transform="translate(-579.815 -573.126)"/><path class="c" d="M722.75,580.441l.667-3.159a3.539,3.539,0,0,0,.085-.616.54.54,0,0,0-.606-.616,1.055,1.055,0,0,0-.668.268,2.423,2.423,0,0,0-.592.773,4.38,4.38,0,0,0-.395,1.145l-.46,2.2h-1.109l1.109-5.2h.865l-.1.964h.042a2.819,2.819,0,0,1,.8-.806,1.7,1.7,0,0,1,.9-.251,1.3,1.3,0,0,1,.976.357,1.4,1.4,0,0,1,.345,1.015,4.443,4.443,0,0,1-.108.851l-.644,3.069Z" transform="translate(-594.252 -573.127)"/><path class="c" d="M738.159,575.5h1.09l.3,2.5q.042.291.075.82t.033.853h.029q.4-1.01.634-1.471l1.377-2.7h1.194l-3.234,6.017a3.346,3.346,0,0,1-.921,1.135,1.947,1.947,0,0,1-1.171.36,2.456,2.456,0,0,1-.672-.089v-.884a2.918,2.918,0,0,0,.587.075,1.048,1.048,0,0,0,.63-.2,2.326,2.326,0,0,0,.583-.731l.24-.433Z" transform="translate(-606.812 -573.38)"/><path class="c" d="M767.748,576.181l1.452-6.872h1.114l-1.25,5.909H771.6l-.2.964Z" transform="translate(-629.323 -568.867)"/><path class="c" d="M787.252,580.534a1.276,1.276,0,0,1-1.048-.477,2.084,2.084,0,0,1-.385-1.342,4.794,4.794,0,0,1,.327-1.777,3.2,3.2,0,0,1,.9-1.309,1.916,1.916,0,0,1,1.26-.482,1.335,1.335,0,0,1,1.3.837h.047l.291-.743h.846l-1.109,5.2h-.855l.1-.827h-.028a2.111,2.111,0,0,1-1.641.921m.4-.893a1.089,1.089,0,0,0,.757-.364,2.747,2.747,0,0,0,.611-.975,3.624,3.624,0,0,0,.24-1.335.971.971,0,0,0-.221-.665.733.733,0,0,0-.578-.252,1.044,1.044,0,0,0-.752.362,2.575,2.575,0,0,0-.564.985,3.981,3.981,0,0,0-.212,1.29,1.133,1.133,0,0,0,.19.717.64.64,0,0,0,.529.237" transform="translate(-642.504 -573.126)"/><path class="c" d="M808.688,580.441l.667-3.159a3.539,3.539,0,0,0,.085-.616.54.54,0,0,0-.606-.616,1.054,1.054,0,0,0-.668.268,2.423,2.423,0,0,0-.592.773,4.378,4.378,0,0,0-.395,1.145l-.46,2.2h-1.109l1.109-5.2h.865l-.1.964h.042a2.819,2.819,0,0,1,.8-.806,1.7,1.7,0,0,1,.9-.251,1.3,1.3,0,0,1,.976.357,1.4,1.4,0,0,1,.345,1.015,4.451,4.451,0,0,1-.108.851l-.644,3.069Z" transform="translate(-656.941 -573.127)"/><path class="c" d="M829.621,575.241l-.146.644-.9.155a1.465,1.465,0,0,1,.132.644,1.9,1.9,0,0,1-.559,1.441,2.083,2.083,0,0,1-1.5.533,2.211,2.211,0,0,1-.432-.037q-.522.188-.522.489a.243.243,0,0,0,.148.244,1.638,1.638,0,0,0,.43.1l.6.075a2.259,2.259,0,0,1,1.185.411,1.1,1.1,0,0,1,.357.881,1.643,1.643,0,0,1-.71,1.424,3.453,3.453,0,0,1-2.016.5,2.635,2.635,0,0,1-1.478-.352,1.108,1.108,0,0,1-.524-.969,1.189,1.189,0,0,1,.327-.837,2.515,2.515,0,0,1,1.051-.6.661.661,0,0,1-.357-.6.8.8,0,0,1,.219-.562,2.228,2.228,0,0,1,.689-.458,1.284,1.284,0,0,1-.634-1.185,1.987,1.987,0,0,1,.576-1.486,2.08,2.08,0,0,1,1.521-.564,3.083,3.083,0,0,1,.752.094Zm-3.85,5.114a1.575,1.575,0,0,0-.809.334.789.789,0,0,0-.282.616.564.564,0,0,0,.261.487,1.411,1.411,0,0,0,.8.181,2.378,2.378,0,0,0,1.2-.254.8.8,0,0,0,.432-.729.424.424,0,0,0-.212-.376,1.817,1.817,0,0,0-.743-.193Zm1.269-4.47a.844.844,0,0,0-.536.181,1.17,1.17,0,0,0-.357.494,1.8,1.8,0,0,0-.127.684.731.731,0,0,0,.167.515.617.617,0,0,0,.477.181.809.809,0,0,0,.529-.183,1.2,1.2,0,0,0,.348-.5,1.913,1.913,0,0,0,.125-.7q0-.668-.625-.668" transform="translate(-670.123 -573.126)"/><path class="c" d="M848.107,575.5l-.606,2.867a5.127,5.127,0,0,0-.146.907q0,.625.6.625a1.071,1.071,0,0,0,.672-.268,2.361,2.361,0,0,0,.592-.764,4.547,4.547,0,0,0,.4-1.164l.466-2.2h1.1l-1.1,5.2h-.87l.1-.964h-.038a2.836,2.836,0,0,1-.8.8,1.7,1.7,0,0,1-.9.256,1.286,1.286,0,0,1-.973-.357,1.42,1.42,0,0,1-.343-1.024,3.056,3.056,0,0,1,.056-.586l.113-.581L847,575.5Z" transform="translate(-686.587 -573.38)"/><path class="c" d="M868.378,580.534a1.277,1.277,0,0,1-1.048-.477,2.084,2.084,0,0,1-.385-1.342,4.793,4.793,0,0,1,.327-1.777,3.2,3.2,0,0,1,.9-1.309,1.916,1.916,0,0,1,1.26-.482,1.335,1.335,0,0,1,1.3.837h.047l.291-.743h.846l-1.109,5.2h-.855l.1-.827h-.028a2.111,2.111,0,0,1-1.641.921m.4-.893a1.089,1.089,0,0,0,.757-.364,2.746,2.746,0,0,0,.611-.975,3.624,3.624,0,0,0,.24-1.335.971.971,0,0,0-.221-.665.733.733,0,0,0-.578-.252,1.044,1.044,0,0,0-.752.362,2.577,2.577,0,0,0-.564.985,3.981,3.981,0,0,0-.211,1.29,1.133,1.133,0,0,0,.19.717.64.64,0,0,0,.529.237" transform="translate(-701.683 -573.126)"/><path class="c" d="M889.757,575.241l-.146.644-.9.155a1.464,1.464,0,0,1,.132.644,1.9,1.9,0,0,1-.56,1.441,2.082,2.082,0,0,1-1.5.533,2.21,2.21,0,0,1-.432-.037q-.522.188-.522.489a.243.243,0,0,0,.148.244,1.638,1.638,0,0,0,.43.1l.6.075a2.258,2.258,0,0,1,1.185.411,1.1,1.1,0,0,1,.357.881,1.643,1.643,0,0,1-.71,1.424,3.453,3.453,0,0,1-2.016.5,2.635,2.635,0,0,1-1.478-.352,1.108,1.108,0,0,1-.524-.969,1.19,1.19,0,0,1,.327-.837,2.514,2.514,0,0,1,1.05-.6.661.661,0,0,1-.357-.6.8.8,0,0,1,.219-.562,2.227,2.227,0,0,1,.688-.458,1.284,1.284,0,0,1-.634-1.185,1.986,1.986,0,0,1,.576-1.486,2.079,2.079,0,0,1,1.521-.564,3.083,3.083,0,0,1,.752.094Zm-3.85,5.114a1.576,1.576,0,0,0-.809.334.789.789,0,0,0-.282.616.564.564,0,0,0,.261.487,1.411,1.411,0,0,0,.8.181,2.378,2.378,0,0,0,1.2-.254.8.8,0,0,0,.432-.729.425.425,0,0,0-.212-.376,1.817,1.817,0,0,0-.743-.193Zm1.269-4.47a.844.844,0,0,0-.536.181,1.171,1.171,0,0,0-.357.494,1.8,1.8,0,0,0-.127.684.732.732,0,0,0,.167.515.617.617,0,0,0,.477.181.809.809,0,0,0,.529-.183,1.2,1.2,0,0,0,.348-.5,1.913,1.913,0,0,0,.125-.7q0-.668-.625-.668" transform="translate(-713.99 -573.126)"/><path class="c" d="M908.055,580.535a1.949,1.949,0,0,1-1.445-.522,1.975,1.975,0,0,1-.519-1.457,4.133,4.133,0,0,1,.364-1.732,2.97,2.97,0,0,1,.987-1.239,2.37,2.37,0,0,1,1.394-.437,1.824,1.824,0,0,1,1.178.341,1.173,1.173,0,0,1,.421.966,1.5,1.5,0,0,1-.782,1.337,4.278,4.278,0,0,1-2.231.482h-.2l-.009.146v.136a1.182,1.182,0,0,0,.266.818,1.01,1.01,0,0,0,.792.3,2.579,2.579,0,0,0,.672-.089,4.76,4.76,0,0,0,.79-.305v.879a4.356,4.356,0,0,1-.83.294,3.781,3.781,0,0,1-.844.087m.715-4.541a1.182,1.182,0,0,0-.849.4,2.33,2.33,0,0,0-.571,1.067h.136a3.113,3.113,0,0,0,1.382-.251.778.778,0,0,0,.5-.712.474.474,0,0,0-.15-.374.653.653,0,0,0-.446-.134" transform="translate(-730.239 -573.127)"/><path class="c" d="M926.989,578.842a1.506,1.506,0,0,1-.555,1.253,2.424,2.424,0,0,1-1.542.439,3.317,3.317,0,0,1-1.514-.315v-.954a2.861,2.861,0,0,0,1.466.423,1.31,1.31,0,0,0,.738-.188.586.586,0,0,0,.282-.512.578.578,0,0,0-.162-.411,3.176,3.176,0,0,0-.665-.459,2.476,2.476,0,0,1-.829-.641,1.263,1.263,0,0,1-.242-.773,1.4,1.4,0,0,1,.5-1.142,2.074,2.074,0,0,1,1.358-.414,3.271,3.271,0,0,1,1.626.395l-.357.827a2.629,2.629,0,0,0-1.25-.357.925.925,0,0,0-.557.155.5.5,0,0,0-.214.432.532.532,0,0,0,.155.376,2.738,2.738,0,0,0,.634.423,3.679,3.679,0,0,1,.7.475,1.421,1.421,0,0,1,.315.43,1.26,1.26,0,0,1,.108.538" transform="translate(-742.85 -573.126)"/><path class="c" d="M939.729,590.771a.866.866,0,0,1,.221-.623.809.809,0,0,1,.616-.233.589.589,0,0,1,.421.148.569.569,0,0,1,.157.435.863.863,0,0,1-.223.609.76.76,0,0,1-.586.242.583.583,0,0,1-.458-.167.6.6,0,0,1-.148-.411" transform="translate(-754.777 -583.899)"/></g></g><g transform="translate(457.393 82)"><path class="d" d="M368,283.518a5.12,5.12,0,1,1,5.116,5.121A5.121,5.121,0,0,1,368,283.518Zm1.042,0a4.081,4.081,0,1,0,4.087-4.077A4.082,4.082,0,0,0,369.042,283.516Z" transform="translate(-368 -278.4)"/><path class="d" d="M484.039,373.562h-1.422a.065.065,0,0,1-.07-.047q-.334-.679-.667-1.355a1.616,1.616,0,0,0-.24-.365.767.767,0,0,0-.5-.253c-.173-.021-.349-.005-.525-.01-.028,0-.028.015-.028.036v1.949c0,.036-.01.044-.044.044-.432,0-.863,0-1.3,0-.034,0-.044-.008-.044-.041v-5.279c0-.031.008-.041.039-.041.726,0,1.453,0,2.179,0a3.216,3.216,0,0,1,1.06.16,1.283,1.283,0,0,1,.626.434,1.227,1.227,0,0,1,.225.569,1.889,1.889,0,0,1-.041.807,1.208,1.208,0,0,1-.662.763,1.72,1.72,0,0,1-.3.116,1.056,1.056,0,0,1,.421.217,1.7,1.7,0,0,1,.377.47c.163.282.3.579.442.869s.3.6.447.9A.518.518,0,0,1,484.039,373.562Zm-3.456-3.668v.649c0,.034.01.039.041.039.184,0,.367,0,.551,0a1.433,1.433,0,0,0,.333-.036.526.526,0,0,0,.429-.375.982.982,0,0,0,0-.566.479.479,0,0,0-.31-.333,1.148,1.148,0,0,0-.385-.065c-.207,0-.414,0-.618,0-.034,0-.039.01-.039.041C480.583,369.461,480.583,369.679,480.583,369.893Z" transform="translate(-476.325 -365.878)"/></g></g></svg>