<svg xmlns="http://www.w3.org/2000/svg" width="27" height="26" viewBox="0 0 27 26"><defs><style>.a{fill:#007ab9;}.b{fill:#f1f2f2;}</style></defs><g transform="translate(-0.449)"><ellipse class="a" cx="13.5" cy="13" rx="13.5" ry="13" transform="translate(0.449)"/><g transform="translate(6.576 5.775)"><path class="b" d="M42.477,33v5.7h-3.3V33.378c0-1.335-.477-2.246-1.673-2.246a1.807,1.807,0,0,0-1.694,1.208,2.261,2.261,0,0,0-.109.805v5.549h-3.3s.044-9,0-9.935h3.3v1.408c-.007.011-.016.022-.022.033H35.7v-.033a3.28,3.28,0,0,1,2.977-1.641c2.173,0,3.8,1.42,3.8,4.471Zm-13.54-9.027a1.722,1.722,0,1,0-.043,3.434h.021a1.722,1.722,0,1,0,.022-3.434ZM27.264,38.694h3.3V28.758h-3.3Z" transform="translate(-27.195 -23.744)"/></g></g></svg>