<svg xmlns="http://www.w3.org/2000/svg" width="223.364" height="46.814" viewBox="0 0 223.364 46.814"><defs><style>.a{fill:#ff0202;}.b{fill:#3225a7;}.c{fill:#3124a8;}.d{fill:#3405b5;}</style></defs><g transform="translate(0 1.044)"><path class="a" d="M10.412,22.006V0H2.754L0,3.984H5.441V22.006H0V25.99H15.451V22.006Z"/><path class="b" d="M80.66,8.036v3.251H77.2v3.6h3.46v3.251h3.779V8.036ZM77.2,0V3.984H88.133V9.019h4.434V0ZM88.15,16.971v5.035H82.339V25.99H92.567V16.971Z" transform="translate(-64.235)"/><path class="b" d="M212.9,21.223a3.494,3.494,0,0,1-2.586,1.184,2.568,2.568,0,0,1-1.881-.9,5.118,5.118,0,0,1-1.209-2.517,7.818,7.818,0,0,0,3.544-2.084,4.921,4.921,0,0,0,1.377-3.568,4.886,4.886,0,0,0-1.915-4.168,7.641,7.641,0,0,0-4.736-1.434q-3.93,0-7.675,3.518V0H189.3V3.984h3.812V22.006H189.3V25.99H201.09V22.006h-3.275V17.955a14.528,14.528,0,0,0,5.341,1.434,10.093,10.093,0,0,0,2.486,5.235,6,6,0,0,0,4.467,1.9,6.118,6.118,0,0,0,2.973-.667,7.509,7.509,0,0,0,2.25-1.917Zm-6.953-5.8a6.569,6.569,0,0,1-3.04.65,13.259,13.259,0,0,1-5.072-1.1v-.533a15.3,15.3,0,0,1,3.409-2.117A7.551,7.551,0,0,1,204.2,11.6a4.084,4.084,0,0,1,2.217.483,1.723,1.723,0,0,1,.773,1.517,2.022,2.022,0,0,1-1.243,1.817" transform="translate(-157.509)"/><path class="b" d="M434.039,12.47a6.9,6.9,0,0,0,2.536-2.267,5.9,5.9,0,0,0,.94-3.3,6.152,6.152,0,0,0-2.3-5A10.106,10.106,0,0,0,428.631,0H413.6V3.984h4.585V22.006H413.6V25.99h15.719c3.308,0,5.844-.634,7.591-1.9a6.229,6.229,0,0,0,2.637-5.335q0-4.851-5.509-6.285m-10.9-8.486h5.189a5.038,5.038,0,0,1,2.956.834A3.059,3.059,0,0,1,432.493,7.5c0,2.451-1.7,3.668-5.072,3.668h-4.283Zm5.794,18.022h-5.794V14.771h5.979a7.793,7.793,0,0,1,3.98.884,2.972,2.972,0,0,1,1.36,2.7c.017,2.451-1.831,3.651-5.525,3.651" transform="translate(-344.139 0)"/><path class="b" d="M603.362,60.454a2.958,2.958,0,0,1-1.075.233c-.739,0-1.108-.5-1.108-1.484V53.218a6.754,6.754,0,0,0-2.15-5.285,9.042,9.042,0,0,0-6.164-1.917,22.2,22.2,0,0,0-8.548,1.934l.957,3.6A20.267,20.267,0,0,1,592.228,50a5.954,5.954,0,0,1,3.191.767,2.485,2.485,0,0,1,1.243,2.267v1.4a18.631,18.631,0,0,0-2.821-.934,13.5,13.5,0,0,0-3.056-.317,9.879,9.879,0,0,0-3.678.7,6.624,6.624,0,0,0-2.8,2.067,5.649,5.649,0,0,0,.722,7.435,6.77,6.77,0,0,0,4.434,1.467q3.7,0,7.473-3.334a4.2,4.2,0,0,0,1.511,2.3,4.115,4.115,0,0,0,2.536.817,7.693,7.693,0,0,0,1.948-.233,4.722,4.722,0,0,0,1.411-.567Zm-6.718-1.967a13.568,13.568,0,0,1-3.241,1.851,7.331,7.331,0,0,1-2.67.6,3.565,3.565,0,0,1-1.982-.517,1.687,1.687,0,0,1-.806-1.5,1.849,1.849,0,0,1,1.092-1.717,5.643,5.643,0,0,1,2.654-.617,13.9,13.9,0,0,1,4.954.867Z" transform="translate(-485.283 -38.331)"/><path class="b" d="M732.493,56.7a4.606,4.606,0,0,1-1.427,2.634,3.619,3.619,0,0,1-2.569,1.034,5.965,5.965,0,0,1-2.217-.433,10.952,10.952,0,0,1-2.4-1.35,21.843,21.843,0,0,1,4.047-2.267A24.748,24.748,0,0,0,731.8,54.1a10.27,10.27,0,0,0,2.654-2.851,14.558,14.558,0,0,0,1.763-4.335L732.207,45.4a9.432,9.432,0,0,1-1.8,4.084,22.89,22.89,0,0,0-2.973-2.267,10.586,10.586,0,0,0-3.191-1.284,19.053,19.053,0,0,0-4.568-.45H716.74v7.986h4.014V49.5a13.076,13.076,0,0,1,4.1.55,10.921,10.921,0,0,1,2.989,1.5l-2.368,1.367c-1.629.884-2.956,1.667-3.963,2.351A14.97,14.97,0,0,0,715.9,62.8l3.879,1.534a13.467,13.467,0,0,1,1.915-3.634,16.316,16.316,0,0,0,3.644,2.751,8.031,8.031,0,0,0,3.879.884,7.179,7.179,0,0,0,3.275-.784,7.4,7.4,0,0,0,2.721-2.251,7.087,7.087,0,0,0,1.36-3.484Z" transform="translate(-595.671 -37.831)"/><path class="b" d="M872.162,60.454a2.652,2.652,0,0,1-1.075.233c-.739,0-1.108-.5-1.108-1.484V53.218a6.753,6.753,0,0,0-2.15-5.285,9.042,9.042,0,0,0-6.163-1.917,22.2,22.2,0,0,0-8.548,1.934l.957,3.6A20.267,20.267,0,0,1,861.028,50a5.952,5.952,0,0,1,3.191.767,2.484,2.484,0,0,1,1.243,2.267v1.4a18.629,18.629,0,0,0-2.821-.934,13.5,13.5,0,0,0-3.057-.317,9.876,9.876,0,0,0-3.678.7,6.623,6.623,0,0,0-2.8,2.067,5.649,5.649,0,0,0,.722,7.435,6.769,6.769,0,0,0,4.434,1.467q3.7,0,7.473-3.334a4.2,4.2,0,0,0,1.512,2.3,4.114,4.114,0,0,0,2.536.817,7.694,7.694,0,0,0,1.948-.233,4.721,4.721,0,0,0,1.411-.567Zm-6.718-1.967a13.57,13.57,0,0,1-3.241,1.851,7.328,7.328,0,0,1-2.67.6,3.564,3.564,0,0,1-1.982-.517,1.687,1.687,0,0,1-.806-1.5,1.849,1.849,0,0,1,1.092-1.717,5.643,5.643,0,0,1,2.653-.617,13.905,13.905,0,0,1,4.954.867Z" transform="translate(-708.94 -38.331)"/><path class="b" d="M1010.287,60.454a2.653,2.653,0,0,1-1.075.233c-.739,0-1.108-.5-1.108-1.484V53.218a6.754,6.754,0,0,0-2.15-5.285,9.042,9.042,0,0,0-6.164-1.917,22.2,22.2,0,0,0-8.548,1.934l.957,3.6A20.264,20.264,0,0,1,999.153,50a5.952,5.952,0,0,1,3.191.767,2.484,2.484,0,0,1,1.243,2.267v1.4a18.627,18.627,0,0,0-2.821-.934,13.5,13.5,0,0,0-3.057-.317,9.876,9.876,0,0,0-3.678.7,6.624,6.624,0,0,0-2.8,2.067,5.192,5.192,0,0,0-1.075,3.251,5.063,5.063,0,0,0,1.8,4.184,6.771,6.771,0,0,0,4.434,1.467q3.7,0,7.473-3.334a4.2,4.2,0,0,0,1.511,2.3,4.114,4.114,0,0,0,2.536.817,7.692,7.692,0,0,0,1.948-.233,4.723,4.723,0,0,0,1.411-.567Zm-6.718-1.967a13.569,13.569,0,0,1-3.241,1.851,7.328,7.328,0,0,1-2.67.6,3.565,3.565,0,0,1-1.982-.517,1.687,1.687,0,0,1-.806-1.5,1.849,1.849,0,0,1,1.092-1.717,5.644,5.644,0,0,1,2.654-.617,13.905,13.905,0,0,1,4.954.867Z" transform="translate(-823.855 -38.331)"/><path class="b" d="M1140.943,46.1a8.061,8.061,0,0,0-4.031,1.25,17.347,17.347,0,0,0-4.031,3.368V46.55H1124.3V50.3h3.813V60.637H1124.3v3.751h12.444V60.637h-3.862V54.469a15.611,15.611,0,0,1,3.14-2.7,5.393,5.393,0,0,1,2.654-.967v3.251h4.165V46.1Z" transform="translate(-935.483 -38.415)"/><g transform="translate(0.467 34.967)"><path class="c" d="M262.847,571.88a6.5,6.5,0,0,1-.5,2.622,3.962,3.962,0,0,1-1.379,1.749,3.531,3.531,0,0,1-2.039.6,2.777,2.777,0,0,1-2.115-.789,3.039,3.039,0,0,1-.749-2.181,6.234,6.234,0,0,1,.52-2.572,4.132,4.132,0,0,1,1.421-1.78,3.54,3.54,0,0,1,2.047-.617,2.683,2.683,0,0,1,2.06.786,3.07,3.07,0,0,1,.736,2.184m-2.9-1.888a1.976,1.976,0,0,0-1.319.506,3.342,3.342,0,0,0-.926,1.406,5.585,5.585,0,0,0-.335,1.965,2.085,2.085,0,0,0,.43,1.408,1.5,1.5,0,0,0,1.2.5,1.953,1.953,0,0,0,1.311-.5,3.281,3.281,0,0,0,.907-1.4,5.772,5.772,0,0,0,.324-1.98,2.126,2.126,0,0,0-.416-1.4,1.445,1.445,0,0,0-1.176-.5" transform="translate(-256.063 -568.535)"/><path class="c" d="M283.791,581.087l.749-3.545a3.97,3.97,0,0,0,.095-.691.606.606,0,0,0-.68-.691,1.183,1.183,0,0,0-.749.3,2.72,2.72,0,0,0-.665.868,4.92,4.92,0,0,0-.443,1.284l-.517,2.474h-1.245l1.245-5.834h.971l-.111,1.081h.047a3.165,3.165,0,0,1,.9-.9,1.906,1.906,0,0,1,1.008-.282,1.453,1.453,0,0,1,1.095.4,1.573,1.573,0,0,1,.388,1.139,4.993,4.993,0,0,1-.121.955l-.723,3.444Z" transform="translate(-272.967 -572.88)"/><path class="c" d="M304.347,581.193a2.186,2.186,0,0,1-1.622-.586,2.216,2.216,0,0,1-.583-1.635,4.639,4.639,0,0,1,.409-1.944,3.334,3.334,0,0,1,1.108-1.39,2.658,2.658,0,0,1,1.564-.49,2.046,2.046,0,0,1,1.321.382,1.316,1.316,0,0,1,.472,1.084,1.679,1.679,0,0,1-.878,1.5,4.8,4.8,0,0,1-2.5.541h-.227l-.011.164v.153a1.327,1.327,0,0,0,.3.918,1.133,1.133,0,0,0,.889.332,2.9,2.9,0,0,0,.754-.1,5.354,5.354,0,0,0,.886-.343v.986a4.9,4.9,0,0,1-.931.33,4.243,4.243,0,0,1-.947.1m.8-5.1a1.326,1.326,0,0,0-.952.453,2.615,2.615,0,0,0-.641,1.2h.153a3.493,3.493,0,0,0,1.551-.282.874.874,0,0,0,.559-.8.533.533,0,0,0-.169-.419.733.733,0,0,0-.5-.15" transform="translate(-288.153 -572.88)"/><path class="c" d="M335.542,577.021H334.17l-2.163-6.135h-.032l-.053.364q-.127.787-.187,1.121t-.968,4.65h-1.155l1.63-7.712h1.414l2.1,6.061h.037q.032-.285.164-1.015t.211-1.074l.844-3.972h1.155Z" transform="translate(-307.285 -568.813)"/><path class="c" d="M357.58,581.192a1.433,1.433,0,0,1-1.176-.535,2.339,2.339,0,0,1-.433-1.506,5.38,5.38,0,0,1,.367-1.994,3.6,3.6,0,0,1,1.01-1.469,2.15,2.15,0,0,1,1.414-.541,1.5,1.5,0,0,1,1.456.939h.053l.327-.834h.95l-1.245,5.834h-.96l.111-.928h-.032a2.368,2.368,0,0,1-1.841,1.034m.453-1a1.222,1.222,0,0,0,.849-.409,3.084,3.084,0,0,0,.686-1.095,4.067,4.067,0,0,0,.269-1.5,1.09,1.09,0,0,0-.248-.746.822.822,0,0,0-.649-.282,1.172,1.172,0,0,0-.844.406,2.891,2.891,0,0,0-.633,1.105,4.468,4.468,0,0,0-.237,1.448,1.271,1.271,0,0,0,.213.8.718.718,0,0,0,.593.266" transform="translate(-325.641 -572.879)"/><path class="c" d="M378.459,577.455a2.3,2.3,0,0,0,.8-.164v.939a2.285,2.285,0,0,1-.5.158,2.973,2.973,0,0,1-.633.069q-1.445,0-1.445-1.3a3.326,3.326,0,0,1,.084-.691l.638-3.007h-.855l.111-.58,1-.433.68-1.224h.77l-.274,1.3H380.3l-.206.939h-1.461l-.644,3.017a2.174,2.174,0,0,0-.069.485.5.5,0,0,0,.132.361.54.54,0,0,0,.4.134" transform="translate(-339.969 -570.144)"/><path class="c" d="M390.073,576.2h-1.245l1.245-5.834h1.24Zm.248-7.269a.82.82,0,0,1,.205-.58.754.754,0,0,1,.581-.221.7.7,0,0,1,.454.14.513.513,0,0,1,.174.425.81.81,0,0,1-.211.591.739.739,0,0,1-.554.216.758.758,0,0,1-.464-.137.5.5,0,0,1-.185-.433" transform="translate(-348.523 -567.99)"/><path class="c" d="M404.622,577.461a4.75,4.75,0,0,1-.385,1.939,3.1,3.1,0,0,1-1.057,1.34,2.646,2.646,0,0,1-1.548.467,2.157,2.157,0,0,1-1.609-.6,2.236,2.236,0,0,1-.6-1.643,4.811,4.811,0,0,1,.377-1.925,3.173,3.173,0,0,1,1.057-1.364,2.63,2.63,0,0,1,1.572-.488,2.111,2.111,0,0,1,1.609.612,2.323,2.323,0,0,1,.58,1.667m-1.25-.052a1.367,1.367,0,0,0-.259-.884.9.9,0,0,0-.738-.319,1.228,1.228,0,0,0-.878.377,2.487,2.487,0,0,0-.6,1.023,4.366,4.366,0,0,0-.214,1.38,1.36,1.36,0,0,0,.261.9.95.95,0,0,0,.773.311,1.214,1.214,0,0,0,.855-.358,2.359,2.359,0,0,0,.591-1,4.564,4.564,0,0,0,.211-1.422" transform="translate(-355.904 -572.903)"/><path class="c" d="M422.463,581.087l.749-3.545a3.97,3.97,0,0,0,.095-.691.606.606,0,0,0-.68-.691,1.183,1.183,0,0,0-.749.3,2.719,2.719,0,0,0-.665.868,4.921,4.921,0,0,0-.443,1.284l-.517,2.474h-1.245l1.245-5.834h.971l-.111,1.081h.047a3.165,3.165,0,0,1,.9-.9,1.906,1.906,0,0,1,1.008-.282,1.453,1.453,0,0,1,1.095.4,1.572,1.572,0,0,1,.388,1.139,4.987,4.987,0,0,1-.121.955l-.722,3.444Z" transform="translate(-369.541 -572.88)"/><path class="c" d="M439.755,590.876a.972.972,0,0,1,.248-.7.907.907,0,0,1,.691-.261.661.661,0,0,1,.472.166.638.638,0,0,1,.177.488.968.968,0,0,1-.25.683.852.852,0,0,1-.657.272.655.655,0,0,1-.514-.187.67.67,0,0,1-.166-.462" transform="translate(-383.99 -583.164)"/><path class="c" d="M467.128,571.88a6.5,6.5,0,0,1-.5,2.622,3.963,3.963,0,0,1-1.379,1.749,3.531,3.531,0,0,1-2.039.6,2.777,2.777,0,0,1-2.115-.789,3.039,3.039,0,0,1-.749-2.181,6.234,6.234,0,0,1,.52-2.572,4.133,4.133,0,0,1,1.421-1.78,3.54,3.54,0,0,1,2.047-.617,2.684,2.684,0,0,1,2.06.786,3.07,3.07,0,0,1,.736,2.184m-2.9-1.888a1.977,1.977,0,0,0-1.319.506,3.343,3.343,0,0,0-.926,1.406,5.587,5.587,0,0,0-.335,1.965,2.085,2.085,0,0,0,.43,1.408,1.5,1.5,0,0,0,1.2.5,1.953,1.953,0,0,0,1.311-.5,3.279,3.279,0,0,0,.907-1.4,5.774,5.774,0,0,0,.324-1.98,2.126,2.126,0,0,0-.416-1.4,1.445,1.445,0,0,0-1.176-.5" transform="translate(-398.328 -568.535)"/><path class="c" d="M488.073,581.087l.749-3.545a3.968,3.968,0,0,0,.1-.691.606.606,0,0,0-.68-.691,1.184,1.184,0,0,0-.749.3,2.718,2.718,0,0,0-.664.868,4.917,4.917,0,0,0-.443,1.284l-.517,2.474h-1.245l1.245-5.834h.971l-.111,1.081h.047a3.165,3.165,0,0,1,.9-.9,1.906,1.906,0,0,1,1.008-.282,1.453,1.453,0,0,1,1.095.4,1.572,1.572,0,0,1,.388,1.139,4.991,4.991,0,0,1-.121.955l-.722,3.444Z" transform="translate(-415.233 -572.88)"/><path class="c" d="M508.629,581.193a2.187,2.187,0,0,1-1.622-.586,2.216,2.216,0,0,1-.583-1.635,4.641,4.641,0,0,1,.409-1.944,3.333,3.333,0,0,1,1.108-1.39,2.658,2.658,0,0,1,1.564-.49,2.047,2.047,0,0,1,1.322.382,1.317,1.317,0,0,1,.472,1.084,1.679,1.679,0,0,1-.878,1.5,4.8,4.8,0,0,1-2.5.541h-.227l-.011.164v.153a1.327,1.327,0,0,0,.3.918,1.133,1.133,0,0,0,.889.332,2.9,2.9,0,0,0,.754-.1,5.353,5.353,0,0,0,.886-.343v.986a4.9,4.9,0,0,1-.931.33,4.242,4.242,0,0,1-.947.1m.8-5.1a1.326,1.326,0,0,0-.952.453,2.615,2.615,0,0,0-.641,1.2h.153a3.493,3.493,0,0,0,1.551-.282.874.874,0,0,0,.559-.8.533.533,0,0,0-.169-.419.734.734,0,0,0-.5-.15" transform="translate(-430.42 -572.88)"/><path class="c" d="M536.949,577.021l-.607-6.4h-.032a15.3,15.3,0,0,1-.29,1.793l-.971,4.61H533.9l1.63-7.712h1.7l.575,6.061h.032l3.2-6.061h1.815l-1.609,7.712h-1.2l.96-4.6q.206-.981.454-1.8h-.032l-3.392,6.4Z" transform="translate(-449.551 -568.813)"/><path class="c" d="M566.483,581.192a1.433,1.433,0,0,1-1.176-.535,2.339,2.339,0,0,1-.433-1.506,5.381,5.381,0,0,1,.367-1.994,3.6,3.6,0,0,1,1.01-1.469,2.15,2.15,0,0,1,1.414-.541,1.5,1.5,0,0,1,1.456.939h.053l.327-.834h.95l-1.245,5.834h-.96l.111-.928h-.032a2.368,2.368,0,0,1-1.841,1.034m.454-1a1.223,1.223,0,0,0,.849-.409,3.084,3.084,0,0,0,.686-1.095,4.064,4.064,0,0,0,.269-1.5,1.09,1.09,0,0,0-.248-.746.823.823,0,0,0-.649-.282,1.172,1.172,0,0,0-.844.406,2.891,2.891,0,0,0-.633,1.105,4.468,4.468,0,0,0-.237,1.448,1.271,1.271,0,0,0,.213.8.718.718,0,0,0,.594.266" transform="translate(-471.125 -572.879)"/><path class="c" d="M588.621,575.147a2.269,2.269,0,0,1,.569.063l-.269,1.156a2.143,2.143,0,0,0-.538-.074,1.548,1.548,0,0,0-1.187.6,3.393,3.393,0,0,0-.728,1.561l-.559,2.637h-1.245l1.245-5.834h.97l-.111,1.081h.048a3.224,3.224,0,0,1,.875-.91,1.709,1.709,0,0,1,.928-.277" transform="translate(-484.908 -572.879)"/><path class="c" d="M603.622,570.05h1.435l-2.548,2.558,1.535,3.276h-1.382l-1.1-2.484-.717.506-.406,1.978h-1.245l1.741-8.208h1.239q-.712,3.307-.841,3.848t-.314,1.195h.021Z" transform="translate(-495.024 -567.676)"/><path class="c" d="M620.995,581.193a2.187,2.187,0,0,1-1.622-.586,2.216,2.216,0,0,1-.583-1.635,4.641,4.641,0,0,1,.409-1.944,3.334,3.334,0,0,1,1.108-1.39,2.658,2.658,0,0,1,1.564-.49,2.046,2.046,0,0,1,1.321.382,1.316,1.316,0,0,1,.472,1.084,1.679,1.679,0,0,1-.878,1.5,4.8,4.8,0,0,1-2.5.541h-.227l-.011.164v.153a1.327,1.327,0,0,0,.3.918,1.133,1.133,0,0,0,.889.332,2.9,2.9,0,0,0,.754-.1,5.349,5.349,0,0,0,.886-.343v.986a4.894,4.894,0,0,1-.931.33,4.241,4.241,0,0,1-.947.1m.8-5.1a1.326,1.326,0,0,0-.952.453,2.614,2.614,0,0,0-.641,1.2h.153a3.493,3.493,0,0,0,1.551-.282.874.874,0,0,0,.559-.8.534.534,0,0,0-.169-.419.734.734,0,0,0-.5-.15" transform="translate(-508.674 -572.88)"/><path class="c" d="M639.349,577.455a2.3,2.3,0,0,0,.8-.164v.939a2.281,2.281,0,0,1-.5.158,2.974,2.974,0,0,1-.633.069q-1.445,0-1.445-1.3a3.314,3.314,0,0,1,.085-.691l.638-3.007h-.855l.111-.58,1-.433.68-1.224H640l-.274,1.3h1.472l-.206.939h-1.461l-.644,3.017a2.172,2.172,0,0,0-.068.485.5.5,0,0,0,.132.361.54.54,0,0,0,.4.134" transform="translate(-521.658 -570.144)"/><path class="c" d="M649.475,590.876a.972.972,0,0,1,.248-.7.907.907,0,0,1,.691-.261.661.661,0,0,1,.472.166.639.639,0,0,1,.177.488.969.969,0,0,1-.25.683.852.852,0,0,1-.657.272.655.655,0,0,1-.514-.187.671.671,0,0,1-.166-.462" transform="translate(-530.043 -583.164)"/><path class="c" d="M671.955,577.021l-.607-6.4h-.032a15.268,15.268,0,0,1-.29,1.793l-.97,4.61H668.9l1.63-7.712h1.7l.575,6.061h.032l3.2-6.061h1.815l-1.609,7.712h-1.2l.96-4.6q.206-.981.454-1.8h-.031l-3.392,6.4Z" transform="translate(-543.572 -568.813)"/><path class="c" d="M701.489,581.192a1.432,1.432,0,0,1-1.176-.535,2.339,2.339,0,0,1-.433-1.506,5.38,5.38,0,0,1,.367-1.994,3.6,3.6,0,0,1,1.01-1.469,2.15,2.15,0,0,1,1.414-.541,1.5,1.5,0,0,1,1.456.939h.053l.327-.834h.95l-1.245,5.834h-.96l.111-.928h-.032a2.368,2.368,0,0,1-1.841,1.034m.454-1a1.222,1.222,0,0,0,.849-.409,3.082,3.082,0,0,0,.686-1.095,4.065,4.065,0,0,0,.269-1.5,1.089,1.089,0,0,0-.248-.746.822.822,0,0,0-.649-.282,1.172,1.172,0,0,0-.844.406,2.892,2.892,0,0,0-.633,1.105,4.468,4.468,0,0,0-.237,1.448,1.271,1.271,0,0,0,.213.8.718.718,0,0,0,.593.266" transform="translate(-565.146 -572.879)"/><path class="c" d="M723.126,581.087l.749-3.545a3.976,3.976,0,0,0,.095-.691.606.606,0,0,0-.68-.691,1.184,1.184,0,0,0-.749.3,2.72,2.72,0,0,0-.665.868,4.918,4.918,0,0,0-.443,1.284l-.517,2.474h-1.245l1.245-5.834h.97l-.111,1.081h.047a3.164,3.164,0,0,1,.9-.9,1.906,1.906,0,0,1,1.008-.282,1.453,1.453,0,0,1,1.095.4,1.573,1.573,0,0,1,.388,1.139,4.991,4.991,0,0,1-.121.955l-.722,3.444Z" transform="translate(-578.929 -572.88)"/><path class="c" d="M738.314,575.5h1.224l.332,2.8q.047.327.084.92t.037.958h.032q.454-1.134.712-1.651l1.546-3.028h1.34l-3.629,6.752a3.758,3.758,0,0,1-1.034,1.274,2.186,2.186,0,0,1-1.314.4,2.75,2.75,0,0,1-.754-.1v-.992a3.274,3.274,0,0,0,.659.084,1.176,1.176,0,0,0,.707-.23,2.611,2.611,0,0,0,.654-.82l.269-.485Z" transform="translate(-590.921 -573.121)"/><path class="c" d="M767.749,577.021l1.63-7.712h1.25l-1.4,6.63h2.843l-.227,1.081Z" transform="translate(-612.411 -568.813)"/><path class="c" d="M787.427,581.192a1.432,1.432,0,0,1-1.176-.535,2.338,2.338,0,0,1-.433-1.506,5.379,5.379,0,0,1,.367-1.994,3.6,3.6,0,0,1,1.01-1.469,2.15,2.15,0,0,1,1.414-.541,1.5,1.5,0,0,1,1.456.939h.053l.327-.834h.949l-1.245,5.834h-.96l.111-.928h-.032a2.368,2.368,0,0,1-1.841,1.034m.453-1a1.222,1.222,0,0,0,.849-.409,3.085,3.085,0,0,0,.686-1.095,4.067,4.067,0,0,0,.269-1.5,1.09,1.09,0,0,0-.248-.746.823.823,0,0,0-.649-.282,1.172,1.172,0,0,0-.844.406,2.889,2.889,0,0,0-.633,1.105,4.465,4.465,0,0,0-.237,1.448,1.271,1.271,0,0,0,.213.8.719.719,0,0,0,.594.266" transform="translate(-624.995 -572.879)"/><path class="c" d="M809.064,581.087l.749-3.545a3.973,3.973,0,0,0,.1-.691.606.606,0,0,0-.68-.691,1.183,1.183,0,0,0-.749.3,2.719,2.719,0,0,0-.665.868,4.913,4.913,0,0,0-.443,1.284l-.517,2.474h-1.245l1.245-5.834h.971l-.111,1.081h.047a3.163,3.163,0,0,1,.9-.9,1.907,1.907,0,0,1,1.008-.282,1.453,1.453,0,0,1,1.095.4,1.573,1.573,0,0,1,.388,1.139,4.994,4.994,0,0,1-.121.955l-.723,3.444Z" transform="translate(-638.778 -572.88)"/><path class="c" d="M830.347,575.253l-.164.722-1.013.174a1.644,1.644,0,0,1,.148.722,2.13,2.13,0,0,1-.628,1.617,2.337,2.337,0,0,1-1.683.6,2.478,2.478,0,0,1-.485-.042q-.586.211-.586.549a.273.273,0,0,0,.167.274,1.832,1.832,0,0,0,.482.116l.67.084a2.533,2.533,0,0,1,1.329.462,1.235,1.235,0,0,1,.4.989,1.843,1.843,0,0,1-.8,1.6,3.875,3.875,0,0,1-2.263.565,2.957,2.957,0,0,1-1.659-.4,1.243,1.243,0,0,1-.588-1.087,1.335,1.335,0,0,1,.367-.939,2.822,2.822,0,0,1,1.179-.67.741.741,0,0,1-.4-.67.9.9,0,0,1,.245-.63,2.5,2.5,0,0,1,.773-.514,1.441,1.441,0,0,1-.712-1.329,2.229,2.229,0,0,1,.646-1.667,2.334,2.334,0,0,1,1.706-.633,3.467,3.467,0,0,1,.844.106Zm-4.32,5.739a1.767,1.767,0,0,0-.907.375.885.885,0,0,0-.316.691.633.633,0,0,0,.293.546,1.583,1.583,0,0,0,.894.2,2.668,2.668,0,0,0,1.345-.285.9.9,0,0,0,.485-.817.476.476,0,0,0-.237-.422,2.042,2.042,0,0,0-.833-.216Zm1.424-5.016a.946.946,0,0,0-.6.2,1.314,1.314,0,0,0-.4.554,2.023,2.023,0,0,0-.143.767.821.821,0,0,0,.187.578.692.692,0,0,0,.536.2.909.909,0,0,0,.594-.206,1.343,1.343,0,0,0,.39-.564,2.145,2.145,0,0,0,.14-.786q0-.749-.7-.749" transform="translate(-651.363 -572.879)"/><path class="c" d="M848.333,575.5l-.68,3.218a5.768,5.768,0,0,0-.164,1.018q0,.7.67.7a1.2,1.2,0,0,0,.754-.3,2.651,2.651,0,0,0,.665-.857,5.1,5.1,0,0,0,.448-1.306l.523-2.474h1.229l-1.229,5.834h-.976l.111-1.081h-.042a3.179,3.179,0,0,1-.9.9,1.905,1.905,0,0,1-1.013.288,1.443,1.443,0,0,1-1.092-.4,1.593,1.593,0,0,1-.385-1.15,3.429,3.429,0,0,1,.063-.657q.063-.324.127-.651l.649-3.08Z" transform="translate(-667.082 -573.121)"/><path class="c" d="M868.553,581.192a1.433,1.433,0,0,1-1.176-.535,2.338,2.338,0,0,1-.433-1.506,5.38,5.38,0,0,1,.367-1.994,3.6,3.6,0,0,1,1.01-1.469,2.15,2.15,0,0,1,1.414-.541,1.5,1.5,0,0,1,1.456.939h.053l.327-.834h.95l-1.245,5.834h-.96l.111-.928h-.032a2.368,2.368,0,0,1-1.841,1.034m.454-1a1.222,1.222,0,0,0,.849-.409,3.083,3.083,0,0,0,.686-1.095,4.065,4.065,0,0,0,.269-1.5,1.09,1.09,0,0,0-.248-.746.823.823,0,0,0-.649-.282,1.172,1.172,0,0,0-.844.406,2.892,2.892,0,0,0-.633,1.105,4.468,4.468,0,0,0-.237,1.448,1.271,1.271,0,0,0,.213.8.718.718,0,0,0,.594.266" transform="translate(-681.493 -572.879)"/><path class="c" d="M890.483,575.253l-.164.722-1.013.174a1.642,1.642,0,0,1,.148.722,2.13,2.13,0,0,1-.628,1.617,2.337,2.337,0,0,1-1.683.6,2.477,2.477,0,0,1-.485-.042q-.586.211-.586.549a.273.273,0,0,0,.166.274,1.837,1.837,0,0,0,.482.116l.67.084a2.534,2.534,0,0,1,1.329.462,1.235,1.235,0,0,1,.4.989,1.844,1.844,0,0,1-.8,1.6,3.874,3.874,0,0,1-2.263.565,2.957,2.957,0,0,1-1.659-.4,1.243,1.243,0,0,1-.588-1.087,1.335,1.335,0,0,1,.367-.939,2.823,2.823,0,0,1,1.179-.67.741.741,0,0,1-.4-.67.9.9,0,0,1,.245-.63,2.5,2.5,0,0,1,.772-.514,1.441,1.441,0,0,1-.712-1.329,2.229,2.229,0,0,1,.646-1.667,2.333,2.333,0,0,1,1.706-.633,3.466,3.466,0,0,1,.844.106Zm-4.32,5.739a1.768,1.768,0,0,0-.907.375.885.885,0,0,0-.316.691.633.633,0,0,0,.293.546,1.583,1.583,0,0,0,.894.2,2.667,2.667,0,0,0,1.345-.285.9.9,0,0,0,.485-.817.477.477,0,0,0-.237-.422,2.041,2.041,0,0,0-.833-.216Zm1.424-5.016a.947.947,0,0,0-.6.2,1.315,1.315,0,0,0-.4.554,2.023,2.023,0,0,0-.143.767.821.821,0,0,0,.188.578.691.691,0,0,0,.535.2.908.908,0,0,0,.594-.206,1.344,1.344,0,0,0,.39-.564,2.145,2.145,0,0,0,.14-.786q0-.749-.7-.749" transform="translate(-693.243 -572.879)"/><path class="c" d="M908.295,581.193a2.186,2.186,0,0,1-1.622-.586,2.216,2.216,0,0,1-.583-1.635,4.636,4.636,0,0,1,.409-1.944,3.332,3.332,0,0,1,1.108-1.39,2.659,2.659,0,0,1,1.564-.49,2.047,2.047,0,0,1,1.322.382,1.317,1.317,0,0,1,.472,1.084,1.679,1.679,0,0,1-.878,1.5,4.8,4.8,0,0,1-2.5.541h-.227l-.011.164v.153a1.326,1.326,0,0,0,.3.918,1.133,1.133,0,0,0,.889.332,2.9,2.9,0,0,0,.754-.1,5.34,5.34,0,0,0,.886-.343v.986a4.894,4.894,0,0,1-.931.33,4.243,4.243,0,0,1-.947.1m.8-5.1a1.326,1.326,0,0,0-.952.453,2.616,2.616,0,0,0-.641,1.2h.153a3.493,3.493,0,0,0,1.551-.282.873.873,0,0,0,.559-.8.532.532,0,0,0-.169-.419.733.733,0,0,0-.5-.15" transform="translate(-708.755 -572.88)"/><path class="c" d="M927.43,579.293a1.69,1.69,0,0,1-.622,1.406,2.719,2.719,0,0,1-1.73.493,3.722,3.722,0,0,1-1.7-.353v-1.071a3.211,3.211,0,0,0,1.646.475,1.469,1.469,0,0,0,.828-.211.657.657,0,0,0,.316-.575.648.648,0,0,0-.182-.461,3.565,3.565,0,0,0-.747-.515,2.782,2.782,0,0,1-.931-.72,1.417,1.417,0,0,1-.272-.868,1.569,1.569,0,0,1,.564-1.282,2.328,2.328,0,0,1,1.524-.464,3.671,3.671,0,0,1,1.825.443l-.4.928a2.95,2.95,0,0,0-1.4-.4,1.038,1.038,0,0,0-.625.174.565.565,0,0,0-.24.485.6.6,0,0,0,.174.422,3.082,3.082,0,0,0,.712.475,4.132,4.132,0,0,1,.786.533,1.6,1.6,0,0,1,.353.483,1.416,1.416,0,0,1,.121.6" transform="translate(-720.796 -572.879)"/><path class="c" d="M939.729,590.876a.972.972,0,0,1,.248-.7.908.908,0,0,1,.691-.261.662.662,0,0,1,.472.166.639.639,0,0,1,.177.488.968.968,0,0,1-.25.683.852.852,0,0,1-.657.272.654.654,0,0,1-.514-.187.67.67,0,0,1-.166-.462" transform="translate(-732.182 -583.164)"/></g><g transform="translate(211.874 -1.044)"><path class="d" d="M368,284.144a5.745,5.745,0,1,1,5.741,5.747A5.747,5.747,0,0,1,368,284.144Zm1.169,0a4.579,4.579,0,1,0,4.586-4.575A4.58,4.58,0,0,0,369.169,284.141Z" transform="translate(-368 -278.4)"/><path class="d" d="M484.631,374.217h-1.6a.073.073,0,0,1-.078-.052q-.374-.761-.749-1.52a1.816,1.816,0,0,0-.27-.409.861.861,0,0,0-.566-.284c-.194-.023-.392-.006-.589-.012-.032,0-.032.017-.032.041v2.187c0,.041-.012.049-.049.049-.484,0-.969,0-1.453,0-.038,0-.049-.009-.049-.046v-5.924c0-.035.009-.046.043-.046.815,0,1.63,0,2.446,0a3.608,3.608,0,0,1,1.189.18,1.44,1.44,0,0,1,.7.487,1.376,1.376,0,0,1,.252.638,2.12,2.12,0,0,1-.046.905,1.355,1.355,0,0,1-.743.856,1.935,1.935,0,0,1-.336.131,1.185,1.185,0,0,1,.473.244,1.909,1.909,0,0,1,.424.528c.183.316.334.65.5.975s.337.673.5,1.01A.581.581,0,0,1,484.631,374.217Zm-3.879-4.117v.728c0,.038.012.043.046.043.206,0,.412,0,.618,0a1.611,1.611,0,0,0,.374-.041.59.59,0,0,0,.482-.421,1.1,1.1,0,0,0,0-.635.537.537,0,0,0-.348-.374,1.287,1.287,0,0,0-.432-.073c-.232,0-.464,0-.693,0-.038,0-.044.012-.044.046C480.752,369.616,480.752,369.859,480.752,370.1Z" transform="translate(-475.974 -365.595)"/></g></g></svg>