<svg xmlns="http://www.w3.org/2000/svg" xmlns:xlink="http://www.w3.org/1999/xlink" width="189" height="46" viewBox="0 0 189 46"><defs><style>.a{fill:#fff;opacity:0;}.b{clip-path:url(#a);}.c{fill:#3817ae;}.d{fill:#ff0006;}.e{fill:#3225a7;}</style><clipPath id="a"><rect width="183.737" height="40.127"/></clipPath></defs><g transform="translate(-271 -72)"><rect class="a" width="189" height="46" transform="translate(271 72)"/><g transform="translate(52.751 -390.654)"><g transform="translate(220.63 465.12)"><g class="b" transform="translate(0 0)"><g transform="translate(2.643 1.585)"><path class="c" d="M479.711,483.546a5.208,5.208,0,0,0,1.887-1.7,4.357,4.357,0,0,0,.693-2.469,4.615,4.615,0,0,0-1.716-3.745,7.491,7.491,0,0,0-4.9-1.42H464.5v2.98h3.4V490.7h-3.4v2.978h11.691a9.53,9.53,0,0,0,5.646-1.42,4.644,4.644,0,0,0,1.958-4q0-3.635-4.085-4.71m-8.118-6.361h3.862a3.756,3.756,0,0,1,2.2.623,2.292,2.292,0,0,1,.895,2.015q0,2.754-3.775,2.755H471.6Zm4.316,13.511H471.6v-5.417h4.455a5.763,5.763,0,0,1,2.964.666,2.228,2.228,0,0,1,1.006,2.029q0,2.725-4.112,2.722" transform="translate(-399.461 -472.507)"/><path class="c" d="M557.336,506.2a2,2,0,0,1-.794.171q-.824,0-.824-1.11v-4.484a5.037,5.037,0,0,0-1.6-3.96,6.66,6.66,0,0,0-4.585-1.433,16.488,16.488,0,0,0-6.356,1.447l.71,2.692a14.957,14.957,0,0,1,5.164-1.161,4.45,4.45,0,0,1,2.369.568,1.869,1.869,0,0,1,.922,1.7v1.05a13.568,13.568,0,0,0-2.1-.7,9.963,9.963,0,0,0-2.271-.239,7.216,7.216,0,0,0-2.739.525,4.944,4.944,0,0,0-2.086,1.547,4.266,4.266,0,0,0,.538,5.578,5.029,5.029,0,0,0,3.291,1.093,8.46,8.46,0,0,0,5.562-2.5,3.151,3.151,0,0,0,1.12,1.719,3.045,3.045,0,0,0,1.887.609,5.651,5.651,0,0,0,1.447-.171,3.674,3.674,0,0,0,1.05-.427Zm-5-1.477a10.341,10.341,0,0,1-2.412,1.39,5.681,5.681,0,0,1-1.985.454,2.649,2.649,0,0,1-1.474-.383,1.25,1.25,0,0,1-.6-1.12,1.4,1.4,0,0,1,.81-1.292,4.321,4.321,0,0,1,1.972-.468,10.364,10.364,0,0,1,3.691.653v.767Z" transform="translate(-456.137 -487.919)"/><path class="c" d="M615.647,503.531a3.5,3.5,0,0,1-1.066,1.972,2.739,2.739,0,0,1-1.915.78,4.435,4.435,0,0,1-1.646-.326,8.721,8.721,0,0,1-1.789-1.009,16.426,16.426,0,0,1,3.011-1.7,18.176,18.176,0,0,0,2.883-1.662,7.705,7.705,0,0,0,1.972-2.129,10.813,10.813,0,0,0,1.305-3.25l-2.981-1.134a7.136,7.136,0,0,1-1.333,3.062,17.231,17.231,0,0,0-2.214-1.7,8.06,8.06,0,0,0-2.369-.966,14.359,14.359,0,0,0-3.391-.34h-2.186v5.991H606.9v-2.981a9.815,9.815,0,0,1,3.051.411,8.362,8.362,0,0,1,2.227,1.123l-1.76,1.022q-1.815,1-2.951,1.76a11.216,11.216,0,0,0-2.3,2.17A10.957,10.957,0,0,0,603.3,508.1l2.894,1.161a10.13,10.13,0,0,1,1.419-2.725,12.353,12.353,0,0,0,2.712,2.059,6.051,6.051,0,0,0,2.88.666,5.461,5.461,0,0,0,2.439-.582,5.6,5.6,0,0,0,2.029-1.689,5.21,5.21,0,0,0,1.009-2.611Z" transform="translate(-500.513 -487.694)"/><path class="c" d="M680.786,506.2a2,2,0,0,1-.794.171q-.824,0-.824-1.11v-4.484a5.038,5.038,0,0,0-1.6-3.96,6.66,6.66,0,0,0-4.585-1.433,16.489,16.489,0,0,0-6.356,1.447l.71,2.692a14.958,14.958,0,0,1,5.165-1.161,4.451,4.451,0,0,1,2.369.568,1.87,1.87,0,0,1,.922,1.7v1.05a13.564,13.564,0,0,0-2.1-.7,9.806,9.806,0,0,0-2.271-.239,7.165,7.165,0,0,0-2.739.528,4.945,4.945,0,0,0-2.086,1.547,4.266,4.266,0,0,0,.539,5.578,5.028,5.028,0,0,0,3.29,1.093,8.46,8.46,0,0,0,5.562-2.5,3.149,3.149,0,0,0,1.12,1.719,3.043,3.043,0,0,0,1.887.609,5.645,5.645,0,0,0,1.447-.171,3.67,3.67,0,0,0,1.05-.427Zm-5-1.477a10.433,10.433,0,0,1-2.412,1.39,5.681,5.681,0,0,1-1.985.454,2.649,2.649,0,0,1-1.474-.383,1.25,1.25,0,0,1-.6-1.12,1.4,1.4,0,0,1,.81-1.292,4.313,4.313,0,0,1,1.972-.468,10.363,10.363,0,0,1,3.69.653l0,.767Z" transform="translate(-546.014 -487.919)"/><path class="c" d="M744.241,506.2a2,2,0,0,1-.794.171q-.824,0-.821-1.11v-4.484a5.037,5.037,0,0,0-1.6-3.96,6.654,6.654,0,0,0-4.583-1.433,16.488,16.488,0,0,0-6.356,1.447l.71,2.692a14.944,14.944,0,0,1,5.165-1.161,4.45,4.45,0,0,1,2.369.568,1.869,1.869,0,0,1,.922,1.7v1.05a13.556,13.556,0,0,0-2.1-.7,9.958,9.958,0,0,0-2.271-.239,7.229,7.229,0,0,0-2.741.525,4.946,4.946,0,0,0-2.086,1.547,4.26,4.26,0,0,0,.541,5.578,5.03,5.03,0,0,0,3.291,1.093,8.46,8.46,0,0,0,5.562-2.5,3.151,3.151,0,0,0,1.12,1.719,3.051,3.051,0,0,0,1.885.612,5.643,5.643,0,0,0,1.447-.171,3.671,3.671,0,0,0,1.05-.427Zm-5-1.477a10.338,10.338,0,0,1-2.412,1.39,5.68,5.68,0,0,1-1.985.454,2.674,2.674,0,0,1-1.48-.383,1.248,1.248,0,0,1-.6-1.12,1.4,1.4,0,0,1,.808-1.292,4.32,4.32,0,0,1,1.971-.468,10.339,10.339,0,0,1,3.688.653Z" transform="translate(-592.213 -487.919)"/><path class="c" d="M803.294,495.4a5.893,5.893,0,0,0-2.994.936,12.881,12.881,0,0,0-2.994,2.526V495.74H790.92v2.812h2.839V506.3H790.92v2.809h9.252V506.3h-2.866v-4.626a11.74,11.74,0,0,1,2.341-2.029,3.886,3.886,0,0,1,1.972-.723v2.439h3.092V495.4Z" transform="translate(-637.108 -487.934)"/><path class="d" d="M318.724,503.914V492.84H313.6l-2.048,2.981h3.476v8.094h-3.378v2.978H321.3v-2.978Z" transform="translate(-288.107 -486.07)"/><path class="c" d="M245.625,473.131a10.147,10.147,0,0,0-3.892-3.8,11.123,11.123,0,0,0-5.513-1.382,11.294,11.294,0,0,0-5.556,1.382,10.094,10.094,0,0,0-3.908,3.8,11.106,11.106,0,0,0,0,10.829,10.188,10.188,0,0,0,3.892,3.788,11.808,11.808,0,0,0,11.085,0,10.11,10.11,0,0,0,3.892-3.8,11.08,11.08,0,0,0,0-10.816m-3.552,9.168a6.33,6.33,0,0,1-5.855,3.625,6.557,6.557,0,0,1-3.579-.966,6.425,6.425,0,0,1-2.361-2.63,8.934,8.934,0,0,1,0-7.53,6.721,6.721,0,0,1,9.053-2.9c.136.071.267.144.4.22a6.47,6.47,0,0,1,2.347,2.66,8.9,8.9,0,0,1,0,7.52" transform="translate(-225.348 -467.947)"/><path class="c" d="M352.681,503.037v-4.873a7.587,7.587,0,0,0-1.352-4.874,4.742,4.742,0,0,0-3.908-1.664,6.063,6.063,0,0,0-3.163.878,10.91,10.91,0,0,0-1.838,1.414v2.9a5.624,5.624,0,0,1,3.636-1.716,2.766,2.766,0,0,1,2.154.832,3.223,3.223,0,0,1,.759,2.257v4.844h-2.437v2.943h8.705V503.04Z" transform="translate(-310.581 -485.179)"/><path class="c" d="M407,501.343a8.005,8.005,0,0,1-5.17,1.871,4.894,4.894,0,0,1-3.239-1.085,3.748,3.748,0,0,1-1.335-2.986,17.381,17.381,0,0,0,2.48.832,10.974,10.974,0,0,0,2.63.3,8.287,8.287,0,0,0,2.839-.476,4.9,4.9,0,0,0,2.138-1.439,3.458,3.458,0,0,0,.819-2.3,3.68,3.68,0,0,0-.819-2.363,5.284,5.284,0,0,0-2.257-1.591,8.952,8.952,0,0,0-3.283-.563,8.69,8.69,0,0,0-3.981.949,7.647,7.647,0,0,0-3,2.687,7.292,7.292,0,0,0-1.129,4.055,6.492,6.492,0,0,0,1.129,3.832,7.183,7.183,0,0,0,2.956,2.437,9.3,9.3,0,0,0,3.908.832,10.215,10.215,0,0,0,6.864-2.554Zm-7.473-6.165a4.845,4.845,0,0,1,2.54-.729,2.986,2.986,0,0,1,1.724.446,1.352,1.352,0,0,1,.655,1.161,1.368,1.368,0,0,1-.819,1.246,4.72,4.72,0,0,1-2.154.476,11.221,11.221,0,0,1-3.775-.653,4.81,4.81,0,0,1,1.828-1.947" transform="translate(-347.909 -485.12)"/><g transform="translate(171.065 1.051)"><path class="e" d="M530.36,474.337a4.517,4.517,0,1,1,4.517,4.517h0A4.518,4.518,0,0,1,530.36,474.337Zm.919,0a3.6,3.6,0,1,0,3.606-3.6,3.6,3.6,0,0,0-3.606,3.6Z" transform="translate(-530.36 -469.82)"/><path class="e" d="M543.974,482.088h-1.254a.059.059,0,0,1-.063-.041l-.587-1.2a1.341,1.341,0,0,0-.212-.321.684.684,0,0,0-.443-.223,4.345,4.345,0,0,0-.462-.008c-.025,0-.025.014-.025.033v1.719c0,.033-.008.038-.038.038h-1.142c-.03,0-.038-.008-.038-.035v-4.659c0-.027.008-.035.035-.035h1.923a2.874,2.874,0,0,1,.935.141,1.142,1.142,0,0,1,.552.383,1.058,1.058,0,0,1,.2.5,1.707,1.707,0,0,1-.035.713,1.057,1.057,0,0,1-.585.672,1.553,1.553,0,0,1-.264.1.96.96,0,0,1,.37.19,1.5,1.5,0,0,1,.334.416c.144.247.264.511.389.767s.264.528.394.791A.143.143,0,0,0,543.974,482.088Zm-3.051-3.236v.571c0,.03.008.035.035.035h.487a1.339,1.339,0,0,0,.294-.033.462.462,0,0,0,.378-.332.869.869,0,0,0,0-.5.42.42,0,0,0-.275-.294,1.026,1.026,0,0,0-.34-.057h-.547c-.03,0-.035.008-.035.035C540.923,478.469,540.923,478.662,540.923,478.852Z" transform="translate(-537.167 -475.308)"/></g><g transform="translate(2.174 27.499)"><path class="c" d="M279.975,917.327a5.4,5.4,0,0,1-.416,2.178,3.307,3.307,0,0,1-1.145,1.452,2.937,2.937,0,0,1-1.694.5,2.3,2.3,0,0,1-1.757-.655,2.534,2.534,0,0,1-.623-1.811,5.176,5.176,0,0,1,.432-2.138,3.453,3.453,0,0,1,1.18-1.48,2.927,2.927,0,0,1,1.7-.511,2.228,2.228,0,0,1,1.711.653A2.535,2.535,0,0,1,279.975,917.327Zm-2.4-1.569a1.646,1.646,0,0,0-1.1.421,2.775,2.775,0,0,0-.77,1.167,4.649,4.649,0,0,0-.277,1.632,1.738,1.738,0,0,0,.356,1.169,1.253,1.253,0,0,0,1,.413,1.612,1.612,0,0,0,1.088-.419,2.722,2.722,0,0,0,.753-1.161,4.8,4.8,0,0,0,.269-1.645,1.761,1.761,0,0,0-.345-1.161A1.2,1.2,0,0,0,277.571,915.758Z" transform="translate(-274.34 -914.547)"/><path class="c" d="M298.739,925.583l.623-2.945a3.414,3.414,0,0,0,.079-.574.5.5,0,0,0-.566-.574.988.988,0,0,0-.623.25,2.265,2.265,0,0,0-.552.721,4.093,4.093,0,0,0-.367,1.066l-.43,2.056H295.87l1.033-4.846h.808l-.092.9h.041a2.58,2.58,0,0,1,.751-.75,1.569,1.569,0,0,1,.838-.234,1.21,1.21,0,0,1,.908.332,1.308,1.308,0,0,1,.321.947,4.1,4.1,0,0,1-.1.794l-.6,2.861Z" transform="translate(-290.015 -918.763)"/><path class="c" d="M316.923,925.656a1.685,1.685,0,0,1-1.833-1.847,3.866,3.866,0,0,1,.34-1.615,2.776,2.776,0,0,1,.919-1.156,2.208,2.208,0,0,1,1.3-.408,1.7,1.7,0,0,1,1.1.318,1.093,1.093,0,0,1,.392.9,1.39,1.39,0,0,1-.729,1.246,3.993,3.993,0,0,1-2.08.449h-.188l-.008.136v.128a1.092,1.092,0,0,0,.248.762.949.949,0,0,0,.74.277,2.341,2.341,0,0,0,.626-.084,4.254,4.254,0,0,0,.737-.286v.819a4.169,4.169,0,0,1-.772.275A3.209,3.209,0,0,1,316.923,925.656Zm.666-4.234a1.1,1.1,0,0,0-.791.378,2.164,2.164,0,0,0-.533,1h.128a2.928,2.928,0,0,0,1.289-.234.725.725,0,0,0,.465-.664.437.437,0,0,0-.141-.348A.587.587,0,0,0,317.589,921.422Z" transform="translate(-304.008 -918.748)"/><path class="c" d="M345.637,921.637h-1.131l-.163-3.691-.027-.81.016-.465H344.3a10.1,10.1,0,0,1-.514,1.275l-1.686,3.691h-1.123l-.231-6.407h1l.084,3.726q0,.6-.057,1.517h.027q.363-.967.623-1.556l1.7-3.685h.987l.136,3.677.014.74-.014.824h.035c.082-.256.185-.547.307-.865s.212-.544.267-.669l1.569-3.707h1.077Z" transform="translate(-322.689 -914.817)"/><path class="c" d="M371.149,922.573a3.922,3.922,0,0,1-.321,1.61,2.584,2.584,0,0,1-.878,1.112,2.2,2.2,0,0,1-1.286.389,1.81,1.81,0,0,1-1.338-.5,1.862,1.862,0,0,1-.495-1.365,3.983,3.983,0,0,1,.313-1.6,2.673,2.673,0,0,1,.878-1.134,2.194,2.194,0,0,1,1.305-.405,1.758,1.758,0,0,1,1.338.509A1.917,1.917,0,0,1,371.149,922.573Zm-1.039-.046a1.13,1.13,0,0,0-.215-.734.747.747,0,0,0-.615-.266,1.015,1.015,0,0,0-.729.313,2.079,2.079,0,0,0-.5.851,3.592,3.592,0,0,0-.177,1.145,1.133,1.133,0,0,0,.218.745.794.794,0,0,0,.642.258,1.007,1.007,0,0,0,.71-.3,1.935,1.935,0,0,0,.489-.835A3.846,3.846,0,0,0,370.11,922.527Z" transform="translate(-341.677 -918.784)"/><path class="c" d="M387.305,920.64a1.866,1.866,0,0,1,.473.052l-.223.96a1.8,1.8,0,0,0-.446-.063,1.3,1.3,0,0,0-.987.5,2.822,2.822,0,0,0-.6,1.3l-.465,2.192H384.02l1.033-4.846h.808l-.092.9h.041a2.665,2.665,0,0,1,.726-.756A1.413,1.413,0,0,1,387.305,920.64Z" transform="translate(-354.192 -918.755)"/><path class="c" d="M397.515,920.531H396.49l1.447-6.821h1.031Z" transform="translate(-363.27 -913.71)"/><path class="c" d="M407.65,915.595a1.256,1.256,0,0,1,1.175.781h.035a8.092,8.092,0,0,1,.163-1.1l.332-1.569h1.02l-1.447,6.821h-.808l.084-.772h-.03a2.715,2.715,0,0,1-.745.661,1.576,1.576,0,0,1-.761.2,1.179,1.179,0,0,1-.982-.446,1.972,1.972,0,0,1-.356-1.259,4.45,4.45,0,0,1,.313-1.678,2.941,2.941,0,0,1,.84-1.21A1.807,1.807,0,0,1,407.65,915.595Zm-.587,4.191a1.019,1.019,0,0,0,.713-.359,2.565,2.565,0,0,0,.566-.938,3.375,3.375,0,0,0,.212-1.169.994.994,0,0,0-.19-.639.7.7,0,0,0-.582-.242.955.955,0,0,0-.7.337,2.365,2.365,0,0,0-.517.925,3.84,3.84,0,0,0-.193,1.2Q406.374,919.786,407.062,919.786Z" transform="translate(-369.706 -913.71)"/><path class="e" d="M423.587,936.079a.823.823,0,0,1,.207-.585.768.768,0,0,1,.576-.217.554.554,0,0,1,.394.139.535.535,0,0,1,.147.408.807.807,0,0,1-.212.571.711.711,0,0,1-.549.226.549.549,0,0,1-.43-.158.56.56,0,0,1-.133-.383" transform="translate(-382.998 -929.411)"/><g transform="translate(46.464)"><path class="c" d="M450.825,917.327a5.4,5.4,0,0,1-.416,2.178,3.307,3.307,0,0,1-1.145,1.452,2.937,2.937,0,0,1-1.694.5,2.3,2.3,0,0,1-1.757-.655,2.534,2.534,0,0,1-.623-1.811,5.176,5.176,0,0,1,.432-2.138,3.453,3.453,0,0,1,1.18-1.48,2.927,2.927,0,0,1,1.7-.511,2.228,2.228,0,0,1,1.711.653A2.547,2.547,0,0,1,450.825,917.327Zm-2.407-1.569a1.645,1.645,0,0,0-1.1.421,2.775,2.775,0,0,0-.77,1.167,4.649,4.649,0,0,0-.277,1.632,1.738,1.738,0,0,0,.356,1.169,1.254,1.254,0,0,0,1,.413,1.612,1.612,0,0,0,1.088-.419,2.722,2.722,0,0,0,.753-1.161,4.8,4.8,0,0,0,.269-1.645,1.761,1.761,0,0,0-.345-1.161A1.2,1.2,0,0,0,448.418,915.758Z" transform="translate(-445.19 -914.547)"/><path class="c" d="M469.579,925.583l.623-2.945a3.414,3.414,0,0,0,.079-.574.5.5,0,0,0-.566-.574.988.988,0,0,0-.623.25,2.269,2.269,0,0,0-.552.721,4.105,4.105,0,0,0-.367,1.066l-.43,2.056H466.71l1.033-4.846h.808l-.092.9h.041a2.578,2.578,0,0,1,.751-.75,1.569,1.569,0,0,1,.838-.234,1.21,1.21,0,0,1,.908.332,1.308,1.308,0,0,1,.321.947,4.1,4.1,0,0,1-.1.794l-.6,2.861Z" transform="translate(-460.857 -918.763)"/><path class="c" d="M487.773,925.656a1.685,1.685,0,0,1-1.833-1.847,3.867,3.867,0,0,1,.34-1.615,2.777,2.777,0,0,1,.919-1.156,2.207,2.207,0,0,1,1.3-.408,1.7,1.7,0,0,1,1.1.318,1.093,1.093,0,0,1,.392.9,1.39,1.39,0,0,1-.729,1.246,3.994,3.994,0,0,1-2.081.449h-.188l-.008.136v.128a1.093,1.093,0,0,0,.247.762.949.949,0,0,0,.74.277,2.341,2.341,0,0,0,.626-.084,4.257,4.257,0,0,0,.737-.286v.819a4.171,4.171,0,0,1-.772.275A3.223,3.223,0,0,1,487.773,925.656Zm.666-4.234a1.1,1.1,0,0,0-.791.378,2.164,2.164,0,0,0-.533,1h.128a2.928,2.928,0,0,0,1.289-.234A.725.725,0,0,0,489,921.9a.438.438,0,0,0-.141-.348A.6.6,0,0,0,488.439,921.422Z" transform="translate(-474.858 -918.748)"/><path class="c" d="M511.97,921.637l-.5-5.32h-.027a12.669,12.669,0,0,1-.242,1.49l-.808,3.829h-.96l1.354-6.407H512.2l.479,5.037h.027l2.657-5.037h1.507l-1.338,6.407h-1l.8-3.821c.114-.544.239-1.042.378-1.5h-.027l-2.818,5.32Z" transform="translate(-491.96 -914.817)"/><path class="c" d="M538.525,925.663a1.179,1.179,0,0,1-.976-.446,1.942,1.942,0,0,1-.359-1.251,4.447,4.447,0,0,1,.3-1.656,3,3,0,0,1,.84-1.221,1.786,1.786,0,0,1,1.175-.449,1.246,1.246,0,0,1,1.21.778h.043l.272-.694h.789l-1.034,4.846h-.8l.093-.772h-.027A1.974,1.974,0,0,1,538.525,925.663Zm.375-.832a1.013,1.013,0,0,0,.7-.34,2.533,2.533,0,0,0,.569-.908,3.418,3.418,0,0,0,.223-1.246.894.894,0,0,0-.207-.62.687.687,0,0,0-.538-.234.975.975,0,0,0-.7.337,2.37,2.37,0,0,0-.525.919,3.734,3.734,0,0,0-.2,1.2,1.063,1.063,0,0,0,.177.669A.617.617,0,0,0,538.9,924.831Z" transform="translate(-512.17 -918.756)"/><path class="c" d="M557.835,920.64a1.868,1.868,0,0,1,.473.052l-.223.96a1.8,1.8,0,0,0-.446-.063,1.3,1.3,0,0,0-.987.5,2.822,2.822,0,0,0-.6,1.3l-.465,2.192H554.55l1.033-4.846h.808l-.093.9h.041a2.666,2.666,0,0,1,.726-.756A1.427,1.427,0,0,1,557.835,920.64Z" transform="translate(-524.809 -918.755)"/><path class="c" d="M570.72,915.682h1.191l-2.116,2.127,1.276,2.722h-1.148l-.916-2.064-.6.421-.337,1.643H567.04l1.447-6.821h1.031q-.591,2.75-.7,3.2c-.071.3-.158.631-.261.993h.016Z" transform="translate(-533.902 -913.71)"/><path class="c" d="M586.043,925.656a1.685,1.685,0,0,1-1.833-1.847,3.865,3.865,0,0,1,.34-1.615,2.778,2.778,0,0,1,.919-1.156,2.208,2.208,0,0,1,1.3-.408,1.7,1.7,0,0,1,1.1.318,1.093,1.093,0,0,1,.392.9,1.39,1.39,0,0,1-.729,1.246,3.994,3.994,0,0,1-2.081.449h-.188l-.008.136v.128a1.091,1.091,0,0,0,.248.762.94.94,0,0,0,.74.277,2.341,2.341,0,0,0,.625-.084,4.5,4.5,0,0,0,.737-.286v.819a4.174,4.174,0,0,1-.772.275A3.208,3.208,0,0,1,586.043,925.656Zm.666-4.234a1.1,1.1,0,0,0-.792.378,2.164,2.164,0,0,0-.533,1h.128a2.928,2.928,0,0,0,1.289-.234.725.725,0,0,0,.465-.664.438.438,0,0,0-.141-.348A.587.587,0,0,0,586.709,921.422Z" transform="translate(-546.402 -918.748)"/><path class="c" d="M602.111,922.181a1.921,1.921,0,0,0,.661-.136v.781a1.977,1.977,0,0,1-.416.13,2.48,2.48,0,0,1-.525.057c-.8,0-1.2-.362-1.2-1.082a2.788,2.788,0,0,1,.071-.574l.53-2.5h-.71l.092-.481.832-.359L602.01,917h.639l-.228,1.077h1.224l-.171.78h-1.213l-.536,2.508a1.814,1.814,0,0,0-.057.4.4.4,0,0,0,.109.3A.445.445,0,0,0,602.111,922.181Z" transform="translate(-558.277 -916.105)"/></g><path class="e" d="M613.337,936.079a.824.824,0,0,1,.207-.585.768.768,0,0,1,.576-.217.554.554,0,0,1,.395.139.536.536,0,0,1,.147.408.808.808,0,0,1-.212.571.711.711,0,0,1-.549.226.549.549,0,0,1-.43-.158.559.559,0,0,1-.133-.383" transform="translate(-521.144 -929.411)"/><g transform="translate(97.383 0.413)"><path class="c" d="M634.957,921.637l-.5-5.32h-.027a12.655,12.655,0,0,1-.242,1.49l-.805,3.829h-.96l1.354-6.407h1.417l.479,5.037h.027l2.657-5.037h1.507l-1.338,6.407h-1l.8-3.821c.114-.544.239-1.042.378-1.5h-.027l-2.818,5.32Z" transform="translate(-632.42 -915.23)"/><path class="c" d="M661.505,925.663a1.182,1.182,0,0,1-.976-.446,1.94,1.94,0,0,1-.359-1.251,4.446,4.446,0,0,1,.3-1.656,3,3,0,0,1,.84-1.221,1.786,1.786,0,0,1,1.175-.449,1.246,1.246,0,0,1,1.21.778h.044l.272-.694h.789l-1.033,4.846h-.8l.093-.772h-.027A1.97,1.97,0,0,1,661.505,925.663Zm.375-.832a1.013,1.013,0,0,0,.7-.34,2.573,2.573,0,0,0,.571-.908,3.371,3.371,0,0,0,.223-1.246.894.894,0,0,0-.207-.62.69.69,0,0,0-.538-.234.975.975,0,0,0-.7.337,2.372,2.372,0,0,0-.525.919,3.751,3.751,0,0,0-.2,1.2,1.062,1.062,0,0,0,.177.669A.6.6,0,0,0,661.881,924.831Z" transform="translate(-652.623 -919.169)"/><path class="c" d="M680.4,925.583l.623-2.945a3.406,3.406,0,0,0,.079-.574.5.5,0,0,0-.566-.574.989.989,0,0,0-.623.25,2.264,2.264,0,0,0-.552.721,4.087,4.087,0,0,0-.367,1.066l-.43,2.056H677.53l1.033-4.846h.8l-.092.9h.038a2.579,2.579,0,0,1,.751-.75,1.569,1.569,0,0,1,.838-.234,1.21,1.21,0,0,1,.908.332,1.308,1.308,0,0,1,.321.947,4.105,4.105,0,0,1-.1.794l-.6,2.861Z" transform="translate(-665.262 -919.176)"/><path class="c" d="M693.693,920.96h1.017l.275,2.328c.027.182.049.435.071.764s.03.593.03.794h.027q.375-.942.593-1.371l1.283-2.516H698.1l-3.016,5.61a3.125,3.125,0,0,1-.859,1.058,1.82,1.82,0,0,1-1.09.334,2.215,2.215,0,0,1-.625-.084v-.824a2.789,2.789,0,0,0,.546.071.973.973,0,0,0,.588-.19,2.193,2.193,0,0,0,.544-.683l.223-.4Z" transform="translate(-676.168 -919.402)"/><path class="c" d="M719.15,921.637l1.354-6.407h1.039l-1.167,5.51h2.363l-.188.9Z" transform="translate(-695.563 -915.23)"/><path class="c" d="M736.255,925.663a1.183,1.183,0,0,1-.976-.446,1.94,1.94,0,0,1-.359-1.251,4.444,4.444,0,0,1,.3-1.656,3,3,0,0,1,.84-1.221,1.786,1.786,0,0,1,1.175-.449,1.246,1.246,0,0,1,1.21.778h.044l.272-.694h.789l-1.033,4.846h-.8l.092-.772h-.027A1.966,1.966,0,0,1,736.255,925.663Zm.378-.832a1.012,1.012,0,0,0,.7-.34,2.571,2.571,0,0,0,.571-.908,3.369,3.369,0,0,0,.223-1.246.9.9,0,0,0-.207-.62.69.69,0,0,0-.538-.234.975.975,0,0,0-.7.337,2.373,2.373,0,0,0-.525.919,3.752,3.752,0,0,0-.2,1.2,1.063,1.063,0,0,0,.177.669A.6.6,0,0,0,736.633,924.831Z" transform="translate(-707.044 -919.169)"/><path class="c" d="M755.159,925.583l.623-2.945a3.42,3.42,0,0,0,.079-.574.5.5,0,0,0-.566-.574.988.988,0,0,0-.623.25,2.267,2.267,0,0,0-.552.721,4.107,4.107,0,0,0-.367,1.066l-.43,2.056H752.29l1.033-4.846h.805l-.093.9h.038a2.58,2.58,0,0,1,.75-.75,1.57,1.57,0,0,1,.838-.234,1.21,1.21,0,0,1,.908.332,1.308,1.308,0,0,1,.321.947,4.079,4.079,0,0,1-.1.794l-.6,2.861Z" transform="translate(-719.69 -919.176)"/><path class="c" d="M773.59,920.72l-.136.6-.84.144a1.37,1.37,0,0,1,.122.6,1.77,1.77,0,0,1-.522,1.344,1.941,1.941,0,0,1-1.4.5,1.971,1.971,0,0,1-.4-.035c-.323.117-.487.269-.487.457a.227.227,0,0,0,.139.228,1.485,1.485,0,0,0,.4.1l.557.071a2.128,2.128,0,0,1,1.1.383,1.02,1.02,0,0,1,.332.821,1.53,1.53,0,0,1-.661,1.327,3.22,3.22,0,0,1-1.879.468,2.45,2.45,0,0,1-1.379-.329,1.033,1.033,0,0,1-.49-.9,1.106,1.106,0,0,1,.3-.78,2.349,2.349,0,0,1,.979-.558A.613.613,0,0,1,769,924.6a.754.754,0,0,1,.2-.525,2.079,2.079,0,0,1,.642-.427,1.2,1.2,0,0,1-.593-1.1,1.854,1.854,0,0,1,.536-1.384,1.937,1.937,0,0,1,1.417-.525,2.953,2.953,0,0,1,.7.087h1.681ZM770,925.49a1.456,1.456,0,0,0-.753.31.739.739,0,0,0-.264.574.531.531,0,0,0,.242.454,1.325,1.325,0,0,0,.742.169,2.216,2.216,0,0,0,1.118-.237.744.744,0,0,0,.4-.68.4.4,0,0,0-.2-.351,1.705,1.705,0,0,0-.694-.18Zm1.183-4.169a.794.794,0,0,0-.5.169,1.081,1.081,0,0,0-.332.46,1.679,1.679,0,0,0-.12.636.68.68,0,0,0,.155.479.58.58,0,0,0,.446.169.749.749,0,0,0,.492-.171,1.1,1.1,0,0,0,.323-.468,1.806,1.806,0,0,0,.117-.653C771.768,921.527,771.572,921.321,771.186,921.321Z" transform="translate(-731.164 -919.161)"/><path class="c" d="M789.73,920.953l-.566,2.673a4.869,4.869,0,0,0-.136.846c0,.389.185.582.557.582a1,1,0,0,0,.626-.25,2.214,2.214,0,0,0,.552-.712,4.2,4.2,0,0,0,.373-1.085l.435-2.056h1.02l-1.02,4.846h-.81l.093-.9h-.035a2.664,2.664,0,0,1-.748.748,1.6,1.6,0,0,1-.84.239,1.211,1.211,0,0,1-.908-.332A1.317,1.317,0,0,1,788,924.6a2.841,2.841,0,0,1,.052-.547c.035-.182.071-.359.106-.541l.539-2.559Z" transform="translate(-745.689 -919.395)"/><path class="c" d="M807.546,925.663a1.183,1.183,0,0,1-.976-.446,1.941,1.941,0,0,1-.359-1.251,4.449,4.449,0,0,1,.3-1.656,3,3,0,0,1,.84-1.221,1.787,1.787,0,0,1,1.175-.449,1.246,1.246,0,0,1,1.21.778h.044l.272-.694h.789l-1.033,4.846h-.8l.093-.772h-.027A1.974,1.974,0,0,1,807.546,925.663Zm.375-.832a1.013,1.013,0,0,0,.7-.34,2.576,2.576,0,0,0,.571-.908,3.371,3.371,0,0,0,.223-1.246.894.894,0,0,0-.207-.62.69.69,0,0,0-.538-.234.975.975,0,0,0-.7.337,2.371,2.371,0,0,0-.525.919,3.749,3.749,0,0,0-.2,1.2,1.062,1.062,0,0,0,.177.669A.6.6,0,0,0,807.921,924.831Z" transform="translate(-758.947 -919.169)"/><path class="c" d="M826.4,920.72l-.136.6-.84.144a1.371,1.371,0,0,1,.122.6,1.769,1.769,0,0,1-.522,1.344,1.94,1.94,0,0,1-1.4.5,1.969,1.969,0,0,1-.4-.035c-.324.117-.487.269-.487.457a.227.227,0,0,0,.139.228,1.49,1.49,0,0,0,.4.1l.557.071a2.128,2.128,0,0,1,1.1.383,1.02,1.02,0,0,1,.332.821,1.53,1.53,0,0,1-.661,1.327,3.219,3.219,0,0,1-1.879.468,2.451,2.451,0,0,1-1.379-.329,1.033,1.033,0,0,1-.49-.9,1.106,1.106,0,0,1,.3-.78,2.35,2.35,0,0,1,.979-.558.613.613,0,0,1-.332-.557.754.754,0,0,1,.2-.525,2.082,2.082,0,0,1,.642-.427,1.2,1.2,0,0,1-.593-1.1,1.854,1.854,0,0,1,.536-1.384,1.936,1.936,0,0,1,1.417-.525,2.95,2.95,0,0,1,.7.087H826.4Zm-3.59,4.77a1.455,1.455,0,0,0-.753.31.739.739,0,0,0-.264.574.531.531,0,0,0,.242.454,1.326,1.326,0,0,0,.742.169,2.217,2.217,0,0,0,1.118-.237.745.745,0,0,0,.4-.68.4.4,0,0,0-.2-.351,1.7,1.7,0,0,0-.694-.18Zm1.183-4.169a.8.8,0,0,0-.5.169,1.083,1.083,0,0,0-.332.46,1.68,1.68,0,0,0-.119.636.68.68,0,0,0,.155.479.58.58,0,0,0,.446.169.749.749,0,0,0,.492-.171,1.1,1.1,0,0,0,.323-.468,1.808,1.808,0,0,0,.117-.653C824.575,921.527,824.382,921.321,823.993,921.321Z" transform="translate(-769.612 -919.161)"/><path class="c" d="M842.353,925.656a1.685,1.685,0,0,1-1.833-1.847,3.872,3.872,0,0,1,.34-1.615,2.777,2.777,0,0,1,.919-1.156,2.208,2.208,0,0,1,1.3-.408,1.7,1.7,0,0,1,1.1.318,1.093,1.093,0,0,1,.391.9,1.39,1.39,0,0,1-.729,1.246,4,4,0,0,1-2.081.449h-.187l-.008.136v.128a1.093,1.093,0,0,0,.247.762.941.941,0,0,0,.74.277,2.341,2.341,0,0,0,.625-.084,4.5,4.5,0,0,0,.737-.286v.819a4.172,4.172,0,0,1-.772.275A3.208,3.208,0,0,1,842.353,925.656Zm.666-4.234a1.1,1.1,0,0,0-.791.378,2.163,2.163,0,0,0-.533,1h.128a2.928,2.928,0,0,0,1.289-.234.725.725,0,0,0,.465-.664.438.438,0,0,0-.141-.348A.587.587,0,0,0,843.019,921.422Z" transform="translate(-783.926 -919.161)"/><path class="c" d="M858.937,924.086a1.4,1.4,0,0,1-.517,1.167,2.269,2.269,0,0,1-1.439.411,3.1,3.1,0,0,1-1.411-.294v-.889a2.657,2.657,0,0,0,1.368.394,1.224,1.224,0,0,0,.688-.174.546.546,0,0,0,.264-.479.538.538,0,0,0-.152-.384,2.92,2.92,0,0,0-.62-.427,2.292,2.292,0,0,1-.772-.6,1.184,1.184,0,0,1-.226-.721,1.305,1.305,0,0,1,.468-1.066,1.928,1.928,0,0,1,1.267-.386,3.065,3.065,0,0,1,1.518.367l-.332.772a2.433,2.433,0,0,0-1.167-.332.871.871,0,0,0-.52.144.467.467,0,0,0-.2.4.505.505,0,0,0,.144.351,2.485,2.485,0,0,0,.593.394,3.345,3.345,0,0,1,.653.443,1.354,1.354,0,0,1,.294.4A1.212,1.212,0,0,1,858.937,924.086Z" transform="translate(-794.883 -919.169)"/></g><path class="e" d="M871.057,936.079a.824.824,0,0,1,.207-.585.768.768,0,0,1,.577-.217.554.554,0,0,1,.394.139.536.536,0,0,1,.147.408.806.806,0,0,1-.212.571.711.711,0,0,1-.549.226.548.548,0,0,1-.43-.158.56.56,0,0,1-.133-.383" transform="translate(-708.775 -929.411)"/></g></g></g></g></g></g></svg>
