<svg xmlns="http://www.w3.org/2000/svg" width="29" height="26" viewBox="0 0 29 26"><defs><style>.a{fill:#55acee;}.b{fill:#f1f2f2;}</style></defs><g transform="translate(0.397)"><ellipse class="a" cx="14.5" cy="13" rx="14.5" ry="13" transform="translate(-0.397)"/><g transform="translate(7.603 8)"><path class="b" d="M37.91,35.26a5.242,5.242,0,0,1-1.509.413,2.635,2.635,0,0,0,1.156-1.453,5.26,5.26,0,0,1-1.669.637,2.63,2.63,0,0,0-4.477,2.4,7.459,7.459,0,0,1-5.416-2.746,2.63,2.63,0,0,0,.813,3.508,2.609,2.609,0,0,1-1.19-.329c0,.011,0,.022,0,.033A2.629,2.629,0,0,0,27.725,40.3a2.638,2.638,0,0,1-1.186.045,2.63,2.63,0,0,0,2.454,1.825,5.3,5.3,0,0,1-3.89,1.088,7.472,7.472,0,0,0,11.5-6.3c0-.114,0-.227-.008-.34a5.328,5.328,0,0,0,1.311-1.36Z" transform="translate(-25.103 -34.028)"/></g></g></svg>