<svg xmlns="http://www.w3.org/2000/svg" width="183.837" height="23.518" viewBox="0 0 183.837 23.518"><defs><style>.a{fill:#ff0202;}.b{fill:#3225a7;}</style></defs><path class="a" d="M9.231,19.51V0H2.442L0,3.532H4.824V19.51H0v3.532H13.7V19.51Z"/><path class="b" d="M80.267,7.124v2.882H77.2V13.2h3.067v2.882h3.35V7.124ZM77.2,0V3.532h9.693V8h3.931V0Zm9.708,15.046V19.51H81.756v3.532h9.068v-8Z" transform="translate(-65.706)"/><path class="b" d="M210.219,18.815a3.1,3.1,0,0,1-2.293,1.049,2.276,2.276,0,0,1-1.668-.8,4.538,4.538,0,0,1-1.072-2.232,6.932,6.932,0,0,0,3.142-1.848,4.363,4.363,0,0,0,1.221-3.163,4.332,4.332,0,0,0-1.7-3.7,6.774,6.774,0,0,0-4.2-1.271,9.946,9.946,0,0,0-6.8,3.119V0H189.3V3.532h3.38V19.51H189.3v3.532h10.452V19.51h-2.9V15.918a12.88,12.88,0,0,0,4.735,1.271,8.949,8.949,0,0,0,2.2,4.641,5.32,5.32,0,0,0,3.961,1.685,5.424,5.424,0,0,0,2.635-.591,6.657,6.657,0,0,0,2-1.7Zm-6.164-5.144a5.824,5.824,0,0,1-2.695.576,11.755,11.755,0,0,1-4.5-.975V12.8a13.566,13.566,0,0,1,3.023-1.877,6.694,6.694,0,0,1,2.62-.636,3.62,3.62,0,0,1,1.965.429,1.527,1.527,0,0,1,.685,1.345,1.793,1.793,0,0,1-1.1,1.611" transform="translate(-161.115)"/><path class="b" d="M431.72,11.056a6.112,6.112,0,0,0,2.248-2.01,5.232,5.232,0,0,0,.834-2.926,5.454,5.454,0,0,0-2.04-4.434A8.96,8.96,0,0,0,426.926,0H413.6V3.532h4.065V19.51H413.6v3.532h13.936c2.933,0,5.181-.562,6.73-1.685a5.523,5.523,0,0,0,2.338-4.73q0-4.3-4.884-5.572m-9.663-7.523h4.6a4.466,4.466,0,0,1,2.62.739,2.712,2.712,0,0,1,1.072,2.38c0,2.173-1.5,3.252-4.5,3.252h-3.8Zm5.137,15.977h-5.137V13.1h5.3a6.91,6.91,0,0,1,3.529.783,2.635,2.635,0,0,1,1.206,2.394c.015,2.173-1.623,3.237-4.9,3.237" transform="translate(-352.018 0)"/><path class="b" d="M601.079,58.814a2.624,2.624,0,0,1-.953.207c-.655,0-.983-.443-.983-1.315V52.4a5.987,5.987,0,0,0-1.906-4.685,8.016,8.016,0,0,0-5.464-1.7,19.678,19.678,0,0,0-7.578,1.714l.849,3.193a17.968,17.968,0,0,1,6.164-1.375,5.278,5.278,0,0,1,2.829.68,2.2,2.2,0,0,1,1.1,2.01v1.242a16.517,16.517,0,0,0-2.5-.828,11.969,11.969,0,0,0-2.71-.281,8.757,8.757,0,0,0-3.261.621,5.872,5.872,0,0,0-2.486,1.833,5.008,5.008,0,0,0,.64,6.592,6,6,0,0,0,3.931,1.3q3.283,0,6.626-2.956a3.725,3.725,0,0,0,1.34,2.04,3.648,3.648,0,0,0,2.248.724,6.82,6.82,0,0,0,1.727-.207,4.186,4.186,0,0,0,1.251-.5Zm-5.956-1.744a12.03,12.03,0,0,1-2.873,1.641,6.5,6.5,0,0,1-2.367.532,3.16,3.16,0,0,1-1.757-.458,1.5,1.5,0,0,1-.715-1.33,1.639,1.639,0,0,1,.968-1.522,5,5,0,0,1,2.353-.547,12.327,12.327,0,0,1,4.392.769Z" transform="translate(-496.393 -39.201)"/><path class="b" d="M730.611,55.421a4.083,4.083,0,0,1-1.266,2.335,3.209,3.209,0,0,1-2.278.916,5.288,5.288,0,0,1-1.966-.384,9.706,9.706,0,0,1-2.129-1.2,19.364,19.364,0,0,1,3.588-2.01A21.943,21.943,0,0,0,730,53.115a9.106,9.106,0,0,0,2.353-2.527,12.9,12.9,0,0,0,1.563-3.843L730.357,45.4a8.363,8.363,0,0,1-1.593,3.621,20.294,20.294,0,0,0-2.635-2.01,9.385,9.385,0,0,0-2.829-1.138,16.891,16.891,0,0,0-4.05-.4h-2.606v7.08H720.2V49.036a11.593,11.593,0,0,1,3.633.488,9.681,9.681,0,0,1,2.65,1.33l-2.1,1.212c-1.444.783-2.62,1.478-3.514,2.084a13.273,13.273,0,0,0-4.973,6.681l3.439,1.36a11.937,11.937,0,0,1,1.7-3.222,14.466,14.466,0,0,0,3.231,2.439,7.12,7.12,0,0,0,3.439.783,6.365,6.365,0,0,0,2.9-.695,6.564,6.564,0,0,0,2.412-2,6.283,6.283,0,0,0,1.206-3.089Z" transform="translate(-609.308 -38.69)"/><path class="b" d="M869.879,58.814a2.351,2.351,0,0,1-.953.207c-.655,0-.983-.443-.983-1.315V52.4a5.987,5.987,0,0,0-1.906-4.685,8.016,8.016,0,0,0-5.464-1.7,19.678,19.678,0,0,0-7.579,1.714l.849,3.193a17.968,17.968,0,0,1,6.164-1.375,5.277,5.277,0,0,1,2.829.68,2.2,2.2,0,0,1,1.1,2.01v1.242a16.516,16.516,0,0,0-2.5-.828,11.97,11.97,0,0,0-2.71-.281,8.756,8.756,0,0,0-3.261.621,5.871,5.871,0,0,0-2.486,1.833,5.008,5.008,0,0,0,.64,6.592,6,6,0,0,0,3.931,1.3q3.283,0,6.626-2.956a3.726,3.726,0,0,0,1.34,2.04,3.648,3.648,0,0,0,2.248.724,6.82,6.82,0,0,0,1.727-.207,4.186,4.186,0,0,0,1.251-.5Zm-5.956-1.744a12.028,12.028,0,0,1-2.874,1.641,6.5,6.5,0,0,1-2.367.532,3.16,3.16,0,0,1-1.757-.458,1.5,1.5,0,0,1-.715-1.33,1.639,1.639,0,0,1,.968-1.522,5,5,0,0,1,2.352-.547,12.328,12.328,0,0,1,4.392.769Z" transform="translate(-725.171 -39.201)"/><path class="b" d="M1008,58.814a2.352,2.352,0,0,1-.953.207c-.655,0-.983-.443-.983-1.315V52.4a5.988,5.988,0,0,0-1.906-4.685,8.016,8.016,0,0,0-5.464-1.7,19.678,19.678,0,0,0-7.579,1.714l.849,3.193a17.968,17.968,0,0,1,6.164-1.375,5.278,5.278,0,0,1,2.829.68,2.2,2.2,0,0,1,1.1,2.01v1.242a16.512,16.512,0,0,0-2.5-.828,11.97,11.97,0,0,0-2.71-.281,8.755,8.755,0,0,0-3.261.621,5.873,5.873,0,0,0-2.487,1.833,4.6,4.6,0,0,0-.953,2.882,4.489,4.489,0,0,0,1.593,3.71,6,6,0,0,0,3.931,1.3q3.283,0,6.626-2.956a3.726,3.726,0,0,0,1.34,2.04,3.648,3.648,0,0,0,2.248.724,6.819,6.819,0,0,0,1.727-.207,4.187,4.187,0,0,0,1.251-.5Zm-5.956-1.744a12.029,12.029,0,0,1-2.874,1.641,6.5,6.5,0,0,1-2.367.532,3.16,3.16,0,0,1-1.757-.458,1.5,1.5,0,0,1-.715-1.33,1.639,1.639,0,0,1,.968-1.522,5,5,0,0,1,2.353-.547,12.328,12.328,0,0,1,4.392.769Z" transform="translate(-842.717 -39.201)"/><path class="b" d="M1139.055,46.1a7.148,7.148,0,0,0-3.573,1.109,15.38,15.38,0,0,0-3.573,2.986V46.5H1124.3v3.326h3.38v9.164h-3.38v3.326h11.033V58.988h-3.424V53.52a13.836,13.836,0,0,1,2.784-2.394,4.781,4.781,0,0,1,2.353-.857V53.15h3.693V46.1Z" transform="translate(-956.901 -39.286)"/></svg>